<svg id="svg" xmlns="http://www.w3.org/2000/svg" xmlns:xlink="http://www.w3.org/1999/xlink" width="400" height="500" viewBox="0, 0, 400,500"><g id="svgg"><path id="path0" d="M281.182 15.924 C 278.412 17.382,276.330 18.143,273.400 18.771 C 263.677 20.855,260.625 22.266,258.587 25.621 C 256.574 28.934,254.167 30.148,247.941 30.986 L 246.081 31.237 246.287 32.772 C 246.724 36.030,245.302 38.297,241.002 41.199 C 237.965 43.248,237.405 43.945,235.027 48.634 C 232.558 53.503,229.660 56.161,225.486 57.388 C 221.834 58.461,221.361 65.181,224.440 72.253 C 226.796 77.664,227.453 79.684,227.825 82.659 C 228.158 85.328,228.128 85.331,231.451 82.259 C 238.855 75.416,242.098 78.792,239.010 90.128 C 237.699 94.938,237.853 96.532,239.934 99.713 C 241.159 101.587,241.334 104.323,240.294 105.363 C 239.513 106.144,240.249 107.377,243.282 110.371 C 245.721 112.777,250.800 114.582,250.800 113.043 C 250.800 111.938,252.561 109.517,255.048 107.200 C 257.982 104.467,259.314 102.438,260.317 99.170 C 261.459 95.450,261.791 95.396,265.262 98.361 C 275.787 107.351,297.216 109.976,307.792 103.570 C 318.539 97.061,324.260 85.670,323.448 72.400 C 322.312 53.861,318.781 45.981,308.600 39.266 C 299.384 33.187,293.713 32.223,277.630 33.999 C 271.717 34.653,270.257 32.036,274.696 28.740 C 275.688 28.003,277.288 26.438,278.250 25.263 C 279.213 24.088,280.000 23.246,280.000 23.392 C 280.000 23.538,280.283 23.374,280.629 23.029 C 280.974 22.683,281.514 22.378,281.829 22.350 C 282.143 22.323,282.535 22.264,282.700 22.220 C 282.865 22.176,283.876 21.995,284.946 21.818 C 287.127 21.456,289.455 19.717,289.847 18.155 C 289.979 17.630,290.247 17.200,290.443 17.200 C 291.285 17.200,290.721 15.580,289.695 15.049 C 286.913 13.611,285.255 13.781,281.182 15.924 M296.102 44.841 C 308.594 46.467,313.205 52.506,314.833 69.373 C 316.561 87.271,308.238 98.377,293.083 98.397 C 281.188 98.412,270.239 90.834,266.595 80.065 C 264.016 72.442,265.140 68.692,270.983 65.424 C 275.171 63.083,279.154 57.731,282.241 50.300 C 284.830 44.070,286.159 43.546,296.102 44.841 M246.357 54.959 C 246.883 55.250,248.233 56.627,249.357 58.019 C 250.993 60.045,251.981 60.832,254.316 61.974 C 257.703 63.630,257.941 64.101,257.258 67.805 C 256.590 71.434,256.693 74.769,257.627 79.647 C 258.978 86.708,258.557 87.581,254.455 86.218 C 251.176 85.129,250.339 83.879,249.968 79.518 C 249.273 71.329,247.934 68.593,243.088 65.459 C 238.950 62.783,238.023 60.695,239.692 57.812 C 241.370 54.915,244.139 53.730,246.357 54.959 M167.400 98.748 C 166.740 99.158,165.772 99.959,165.249 100.527 L 164.297 101.561 165.655 103.481 C 168.089 106.920,168.502 108.743,167.494 111.601 C 167.020 112.945,164.922 116.784,164.435 117.200 C 163.260 118.201,162.370 123.018,162.849 125.775 C 164.120 133.082,168.994 136.734,175.275 135.086 C 180.615 133.685,180.757 138.806,175.589 146.416 C 171.460 152.496,167.334 152.674,158.928 147.134 C 149.815 141.128,146.057 139.862,133.640 138.617 C 130.344 138.286,126.336 137.652,124.732 137.208 C 116.391 134.897,106.162 137.841,101.458 143.907 C 99.032 147.035,97.544 148.345,93.813 150.635 C 86.363 155.208,83.376 160.335,81.812 171.233 C 81.451 173.745,80.691 177.510,80.123 179.600 C 77.584 188.934,77.515 190.419,79.225 198.683 C 80.078 202.807,80.994 205.873,82.249 208.800 C 85.010 215.244,84.859 215.986,80.041 219.600 C 78.199 220.981,78.297 220.894,77.343 222.003 C 76.319 223.195,75.697 225.600,76.413 225.600 C 76.675 225.600,78.612 224.955,80.717 224.166 C 83.932 222.962,84.870 222.770,86.573 222.969 C 87.688 223.099,89.086 223.212,89.679 223.220 C 91.072 223.240,92.689 225.130,93.007 227.112 C 93.139 227.930,93.329 229.004,93.430 229.498 C 93.531 229.992,93.605 230.442,93.594 230.498 C 93.520 230.876,95.250 235.303,95.675 235.821 C 98.110 238.795,99.898 239.690,104.308 240.146 C 107.388 240.465,108.577 241.361,111.647 245.678 C 113.164 247.811,114.584 249.666,114.802 249.801 C 115.473 250.216,115.244 251.548,114.426 251.986 C 112.261 253.145,109.988 252.415,106.977 249.595 C 103.584 246.417,100.512 245.559,95.939 246.512 C 94.552 246.801,92.158 246.244,89.440 245.001 C 86.949 243.862,86.800 243.831,86.800 244.452 C 86.800 244.701,86.207 245.736,85.482 246.752 C 82.361 251.129,82.502 252.502,86.328 254.954 C 91.319 258.153,91.800 260.323,89.223 268.026 C 85.853 278.096,84.873 282.431,85.792 283.194 C 86.127 283.471,86.400 284.060,86.400 284.503 C 86.400 284.945,86.571 285.958,86.781 286.754 C 86.990 287.549,87.548 289.730,88.020 291.600 C 90.266 300.502,96.250 304.969,99.708 300.325 C 100.676 299.023,104.313 290.140,105.163 287.000 C 106.250 282.983,105.313 278.807,102.388 274.632 C 96.153 265.730,97.977 263.174,110.568 263.170 C 122.356 263.166,125.247 261.895,130.971 254.200 C 132.943 251.548,134.981 250.238,138.460 249.385 C 140.041 248.998,142.726 248.078,144.427 247.341 C 148.872 245.414,150.344 245.606,151.208 248.223 C 151.744 249.848,151.619 250.778,150.005 257.200 C 149.369 259.730,148.554 263.420,148.193 265.400 C 147.833 267.380,147.011 271.104,146.369 273.677 C 144.743 280.183,144.789 283.193,146.613 289.621 C 150.266 302.493,147.509 307.827,132.769 316.412 C 125.351 320.731,125.334 321.407,132.394 331.000 C 138.207 338.899,138.467 339.565,140.119 350.800 C 140.850 355.777,141.964 357.963,146.575 363.467 C 152.543 370.592,155.203 376.362,155.508 382.847 L 155.689 386.694 156.744 386.168 C 162.734 383.181,169.336 383.506,174.336 387.033 C 182.679 392.919,184.476 393.954,191.457 396.901 C 205.027 402.629,220.242 407.198,225.600 407.154 C 231.454 407.105,233.171 405.599,230.200 403.118 C 225.844 399.480,224.468 397.733,221.996 392.705 C 220.670 390.007,218.868 386.486,217.992 384.879 C 211.956 373.807,226.092 363.812,235.906 372.212 C 239.582 375.359,240.608 380.036,239.438 388.314 C 239.087 390.796,238.800 394.396,238.800 396.314 C 238.799 399.347,238.645 400.126,237.614 402.305 C 236.222 405.247,236.313 405.683,238.532 406.725 C 241.639 408.184,252.974 410.804,251.377 409.694 C 250.762 409.266,250.096 407.292,249.794 405.000 C 249.649 403.900,248.894 401.075,248.116 398.723 C 245.551 390.962,247.864 387.754,257.157 386.189 C 265.338 384.810,268.439 381.739,270.730 372.743 C 271.366 370.244,272.715 366.400,273.729 364.200 C 276.725 357.693,276.915 354.211,274.800 344.484 C 273.462 338.330,272.404 329.922,272.399 325.400 C 272.390 318.002,271.850 315.865,268.378 309.509 C 265.689 304.586,266.576 301.176,270.806 300.175 C 271.573 299.994,272.335 299.813,272.500 299.773 C 272.665 299.733,273.336 299.678,273.990 299.650 C 275.587 299.583,275.083 296.732,272.105 289.000 C 268.941 280.786,269.964 278.332,279.694 270.796 C 284.528 267.052,286.151 264.756,293.196 251.692 C 295.827 246.813,297.601 244.042,299.236 242.257 L 301.551 239.731 300.993 238.166 C 300.279 236.161,300.273 232.341,300.974 225.768 C 301.776 218.252,302.882 216.174,306.034 216.256 C 311.999 216.413,315.074 226.362,311.791 234.882 C 311.547 235.515,311.717 235.510,314.133 234.819 C 319.232 233.361,319.510 233.206,319.452 231.856 C 319.378 230.135,321.153 229.450,322.494 230.682 C 323.227 231.355,323.591 231.439,324.400 231.118 C 324.950 230.900,327.462 230.562,329.983 230.367 C 337.953 229.749,338.337 226.313,331.148 219.940 C 324.279 213.852,324.000 213.518,324.000 211.399 C 324.000 207.506,326.382 205.830,334.226 204.203 C 343.826 202.212,344.866 199.345,336.800 197.107 L 333.205 196.109 330.902 198.418 C 328.734 200.592,324.198 203.200,322.584 203.200 C 322.256 203.200,320.146 203.948,317.894 204.862 C 313.422 206.677,313.141 206.706,303.535 206.365 L 298.870 206.200 297.135 207.418 C 293.884 209.700,292.808 213.445,292.793 222.529 C 292.789 224.988,292.531 228.800,292.220 231.000 C 291.908 233.200,291.453 237.195,291.208 239.878 C 290.772 244.655,290.678 245.359,290.157 247.800 C 289.895 249.030,288.109 252.841,287.626 253.200 C 287.479 253.310,286.924 254.120,286.394 255.000 C 285.864 255.880,285.243 256.807,285.015 257.061 C 284.787 257.315,283.160 259.131,281.400 261.097 C 275.703 267.460,267.182 271.976,258.125 273.431 C 255.966 273.778,251.860 274.523,249.000 275.087 C 244.994 275.876,242.128 276.155,236.520 276.299 C 225.491 276.584,223.885 275.859,221.825 269.676 C 219.994 264.178,217.268 261.647,209.079 257.847 C 206.936 256.852,204.152 255.404,202.891 254.629 C 201.631 253.854,198.834 252.503,196.676 251.627 C 194.518 250.751,190.886 248.863,188.605 247.431 C 180.067 242.071,175.405 241.969,171.844 247.066 C 169.306 250.697,166.800 251.610,166.800 248.904 C 166.800 247.926,167.070 247.620,171.653 243.388 C 172.949 242.191,174.278 240.076,176.800 235.192 C 180.465 228.096,182.185 225.609,188.026 218.960 C 190.102 216.597,192.805 213.209,194.034 211.432 C 196.888 207.302,198.179 206.400,201.233 206.400 C 206.255 206.400,206.766 207.289,205.826 214.400 C 204.783 222.288,205.485 224.604,210.477 229.753 C 214.098 233.487,214.144 233.685,212.556 238.600 C 209.936 246.708,212.792 252.768,220.299 255.028 C 223.717 256.057,223.876 256.160,227.000 259.410 C 232.587 265.221,237.170 265.908,246.137 262.278 C 250.486 260.517,251.261 260.333,255.617 260.030 C 264.426 259.418,266.930 256.941,267.433 248.336 C 267.618 245.180,267.899 243.726,268.621 242.200 C 269.575 240.180,269.930 239.920,273.336 238.744 C 276.654 237.598,275.901 234.000,272.343 234.000 C 271.120 234.000,269.528 232.707,267.162 229.790 C 264.778 226.851,262.309 224.875,258.200 222.616 C 251.924 219.164,251.078 217.870,250.997 211.600 C 250.932 206.545,250.270 204.946,247.161 202.327 C 246.033 201.377,244.006 199.644,242.655 198.475 C 238.479 194.860,236.935 194.427,231.714 195.405 C 226.246 196.430,226.273 196.455,225.165 189.290 C 224.242 183.327,225.844 181.714,231.800 182.603 C 239.430 183.742,242.652 179.596,238.564 173.899 C 236.890 171.567,236.884 171.388,238.460 170.839 C 240.909 169.985,249.419 171.473,249.933 172.844 C 250.007 173.040,250.283 173.200,250.547 173.200 C 251.492 173.200,252.472 175.692,252.992 179.413 C 254.587 190.833,264.878 193.902,271.945 185.066 C 277.034 178.704,278.104 178.362,283.739 181.300 C 287.402 183.210,287.336 183.203,297.200 182.597 C 308.253 181.918,309.904 182.097,315.400 184.576 C 316.872 185.240,320.000 185.781,320.000 185.372 C 320.000 182.930,314.462 178.714,309.027 177.017 C 303.461 175.279,301.172 173.822,294.638 167.858 C 291.848 165.311,287.540 161.896,285.066 160.269 C 277.993 155.618,273.225 150.611,269.381 143.800 C 265.539 136.993,258.542 133.540,248.400 133.446 C 242.172 133.389,241.490 133.701,235.824 139.199 C 233.611 141.347,230.090 144.540,228.000 146.294 C 223.493 150.077,221.144 152.541,218.928 155.809 C 212.974 164.588,207.521 164.097,208.272 154.849 C 208.444 152.732,208.564 150.640,208.540 150.200 C 208.515 149.760,208.474 148.860,208.448 148.200 C 208.401 147.024,208.362 147.002,206.500 147.117 C 203.772 147.285,202.484 146.337,200.855 142.963 C 199.066 139.258,197.613 137.832,193.736 135.975 C 191.535 134.920,189.989 133.857,188.987 132.706 C 184.971 128.095,181.801 116.823,183.308 112.513 L 183.897 110.827 182.049 109.423 C 181.032 108.651,178.566 106.170,176.570 103.909 C 171.343 97.992,169.913 97.187,167.400 98.748 M143.286 100.239 C 141.981 100.810,141.977 100.819,142.686 101.785 C 144.892 104.790,152.146 104.826,150.178 101.822 C 148.790 99.704,145.986 99.060,143.286 100.239 M115.318 102.216 C 114.196 102.775,112.136 104.318,110.739 105.645 C 107.992 108.255,106.537 109.181,104.869 109.381 C 104.281 109.451,103.653 109.529,103.473 109.554 C 102.997 109.621,106.013 113.200,106.548 113.202 C 106.797 113.204,107.536 113.484,108.191 113.826 C 113.211 116.444,126.400 112.813,126.400 108.814 C 126.400 108.403,126.565 108.007,126.767 107.933 C 127.584 107.636,127.732 104.822,126.944 104.575 C 125.872 104.239,124.040 103.318,122.200 102.192 C 120.099 100.907,117.930 100.914,115.318 102.216 M84.939 109.797 C 83.266 110.806,80.077 115.011,80.594 115.527 C 81.574 116.507,85.331 115.724,86.673 114.260 C 89.474 111.203,88.171 107.849,84.939 109.797 M68.600 121.067 C 61.597 121.922,60.447 122.452,55.151 127.264 C 51.200 130.854,49.033 133.822,50.088 134.199 C 54.749 135.862,70.317 127.196,70.386 122.900 C 70.394 122.405,70.580 122.000,70.800 122.000 C 71.020 122.000,71.200 121.730,71.200 121.400 C 71.200 120.808,70.964 120.778,68.600 121.067 M294.181 129.083 C 292.824 129.256,291.712 130.889,291.513 133.000 C 291.401 134.188,291.424 134.203,293.800 134.457 C 297.394 134.841,301.925 134.845,302.160 134.464 C 302.646 133.679,300.448 130.584,298.778 129.701 C 297.114 128.821,296.688 128.764,294.181 129.083 M43.653 150.271 C 42.205 152.505,42.094 154.402,43.329 155.828 C 44.582 157.275,45.024 156.943,45.810 153.963 C 46.887 149.879,45.474 147.461,43.653 150.271 M207.692 160.714 C 210.096 163.118,207.646 171.223,203.797 173.602 C 200.127 175.870,196.856 172.981,197.990 168.472 C 199.564 162.212,204.913 157.935,207.692 160.714 M274.280 167.464 C 274.563 168.202,272.651 169.995,271.576 169.998 C 270.429 170.002,269.481 169.004,269.770 168.095 C 270.178 166.809,273.832 166.298,274.280 167.464 M136.193 177.681 C 146.575 180.288,149.238 190.226,141.636 197.995 C 134.916 204.864,123.745 203.476,119.716 195.273 C 114.430 184.509,123.751 174.557,136.193 177.681 M180.275 184.467 C 185.026 186.679,188.166 193.650,186.674 198.674 C 185.973 201.035,182.663 206.815,179.531 211.148 C 174.726 217.795,173.953 219.145,171.774 224.684 C 167.043 236.710,160.798 240.531,155.325 234.748 C 152.100 231.340,152.303 228.894,156.748 217.600 C 158.854 212.248,159.453 210.074,159.774 206.600 C 160.151 202.530,160.561 201.325,162.845 197.573 C 163.975 195.718,165.482 193.005,166.196 191.544 C 169.660 184.449,174.745 181.893,180.275 184.467 M264.400 201.105 C 260.258 203.336,260.414 209.768,264.671 212.263 C 268.950 214.771,274.000 211.762,274.000 206.705 C 274.000 202.315,268.313 198.998,264.400 201.105 M125.290 217.170 C 135.647 221.515,136.493 235.564,126.400 235.586 C 119.182 235.603,110.400 228.914,110.400 223.400 C 110.400 216.543,117.107 213.737,125.290 217.170 M59.031 220.702 C 58.726 221.007,57.662 221.259,56.700 221.254 C 56.260 221.251,56.000 221.554,56.000 222.068 C 56.000 222.685,56.171 222.818,56.700 222.609 C 57.085 222.457,57.989 222.233,58.710 222.112 C 59.430 221.991,60.086 221.781,60.168 221.646 C 60.387 221.283,59.329 220.405,59.031 220.702 M186.153 263.947 C 187.554 264.637,192.112 267.586,196.283 270.500 C 205.535 276.966,204.762 276.465,208.400 278.347 C 214.924 281.722,219.833 283.030,228.200 283.623 C 240.164 284.470,247.574 285.469,251.439 286.756 C 254.397 287.741,255.669 287.955,258.239 287.901 C 266.914 287.718,267.506 295.306,258.996 297.618 C 253.688 299.060,253.514 299.491,256.601 303.566 C 260.629 308.882,259.848 312.832,253.995 316.740 C 249.441 319.781,246.489 319.417,242.523 315.326 L 240.046 312.771 240.123 321.286 C 240.238 333.957,237.652 338.807,230.800 338.774 C 225.203 338.746,223.061 336.454,220.266 327.500 L 218.550 322.001 217.668 323.194 C 215.625 325.956,212.587 326.211,205.400 324.223 C 199.626 322.625,194.696 322.447,188.199 323.600 C 180.836 324.907,179.264 324.612,174.359 321.001 C 173.064 320.048,171.148 318.956,170.102 318.574 C 161.041 315.270,159.665 312.446,163.362 304.742 C 167.393 296.346,166.902 292.646,160.305 281.703 C 152.436 268.650,153.910 261.172,163.794 263.998 C 168.881 265.453,170.914 265.418,174.800 263.810 C 179.207 261.986,182.245 262.023,186.153 263.947 M193.125 329.761 C 193.722 330.070,195.131 331.296,196.256 332.485 C 198.249 334.593,198.323 334.630,199.152 333.959 C 201.132 332.355,209.328 333.538,214.400 336.160 C 221.243 339.697,221.431 355.600,214.629 355.600 C 213.823 355.600,213.196 355.833,213.063 356.181 C 212.629 357.310,209.680 358.836,206.060 359.805 C 198.303 361.881,196.945 363.348,197.114 369.470 C 197.234 373.830,196.880 375.200,195.635 375.200 C 193.732 375.200,193.253 371.402,194.553 366.616 C 196.182 360.614,194.562 352.771,191.076 349.787 C 185.013 344.597,176.221 341.973,171.654 343.990 C 169.000 345.162,168.253 344.838,168.076 342.435 C 167.805 338.765,170.309 335.890,175.063 334.414 C 176.417 333.993,179.297 332.890,181.463 331.963 C 188.171 329.089,190.849 328.584,193.125 329.761 M156.351 335.233 C 157.610 337.483,154.396 340.977,152.922 338.962 C 152.150 337.906,152.287 336.252,153.246 335.032 C 154.284 333.713,155.546 333.794,156.351 335.233 M3.050 366.849 C 2.492 369.641,2.821 383.900,3.413 382.551 C 3.714 381.864,4.637 380.694,5.464 379.951 C 10.381 375.532,10.356 375.649,7.253 371.635 C 5.963 369.966,4.545 367.925,4.103 367.099 L 3.300 365.599 3.050 366.849 M386.600 368.427 C 385.940 368.850,384.770 369.302,384.000 369.431 C 373.198 371.243,374.313 376.033,385.941 377.772 C 390.578 378.465,392.446 379.291,395.072 381.807 C 397.298 383.940,397.275 383.952,397.250 380.660 C 397.186 372.265,396.258 370.543,390.685 368.464 C 387.961 367.447,388.127 367.449,386.600 368.427 M303.800 368.231 C 299.121 369.366,295.916 369.711,291.000 369.608 C 283.360 369.448,281.024 373.373,281.008 386.400 L 281.000 392.600 282.500 396.077 C 284.618 400.988,284.397 402.819,281.171 407.067 C 279.640 409.083,279.296 410.798,279.588 414.975 C 279.760 417.443,279.631 418.779,279.012 420.975 C 276.866 428.591,278.776 431.102,287.000 431.478 C 291.127 431.666,291.582 431.581,297.000 429.596 C 300.548 428.296,303.369 428.446,309.694 430.270 C 320.833 433.482,332.800 431.853,332.800 427.126 C 332.800 425.382,331.957 424.065,329.062 421.288 C 325.212 417.593,324.127 417.185,309.200 413.818 C 299.793 411.696,290.000 404.857,290.000 400.410 C 290.000 392.140,304.253 390.127,310.932 397.453 C 317.206 404.335,316.047 403.779,326.600 404.972 C 333.646 405.768,336.832 405.767,340.275 404.967 C 351.846 402.277,359.625 410.458,351.113 416.365 C 346.284 419.717,346.203 420.096,349.339 424.676 C 350.515 426.394,351.785 428.396,352.161 429.124 C 354.972 434.564,359.102 436.235,368.600 435.774 C 377.245 435.355,380.913 436.738,381.991 440.824 C 382.249 441.801,382.644 443.309,382.869 444.176 C 383.356 446.055,384.896 447.597,387.037 448.349 C 391.677 449.977,394.800 451.876,394.800 453.070 C 394.800 453.361,394.980 453.600,395.200 453.600 C 395.420 453.600,395.600 454.038,395.600 454.573 C 395.600 455.565,394.408 456.299,393.604 455.802 C 393.382 455.665,393.200 455.743,393.200 455.976 C 393.200 456.209,392.705 456.412,392.100 456.426 C 388.434 456.511,384.251 458.234,382.973 460.186 C 381.216 462.866,382.476 464.656,387.590 466.747 C 392.785 468.871,395.581 472.441,396.632 478.294 C 397.160 481.235,397.575 481.046,397.588 477.860 C 397.598 475.138,397.414 474.290,396.200 471.490 C 394.186 466.842,394.212 463.959,396.300 460.608 L 397.800 458.200 397.804 424.800 C 397.809 390.388,397.756 388.646,396.805 391.661 C 395.473 395.884,392.578 399.342,387.509 402.764 C 382.878 405.891,382.572 407.430,385.994 410.395 C 390.909 414.653,389.892 420.400,384.224 420.400 C 380.924 420.400,378.870 418.859,377.045 415.014 C 375.939 412.683,374.727 411.041,372.003 408.182 C 369.412 405.461,367.984 403.557,366.852 401.309 C 365.072 397.776,364.195 396.722,361.477 394.853 C 355.765 390.923,355.756 387.470,361.441 381.132 C 368.704 373.037,367.076 371.208,352.600 371.200 C 347.980 371.197,343.120 371.014,341.800 370.792 C 340.480 370.570,334.720 370.214,329.000 370.000 C 322.697 369.765,317.418 369.368,315.600 368.992 C 312.519 368.356,305.226 367.886,303.800 368.231 M310.586 375.874 C 314.180 377.588,312.243 378.835,302.232 381.256 C 298.910 382.058,298.895 379.874,302.206 377.596 C 305.807 375.119,308.040 374.660,310.586 375.874 M346.041 376.908 C 348.854 378.787,349.390 381.642,347.494 384.657 C 346.961 385.506,346.202 387.190,345.807 388.400 C 343.716 394.816,340.942 396.800,334.060 396.800 C 323.103 396.800,318.713 392.304,322.423 384.880 C 324.819 380.086,327.809 378.261,334.381 377.581 C 336.305 377.382,338.581 376.966,339.439 376.656 C 341.924 375.760,344.468 375.857,346.041 376.908 M2.745 409.200 C 2.632 412.610,2.701 415.580,2.897 415.800 C 3.116 416.045,3.210 415.812,3.139 415.200 C 3.076 414.650,3.152 412.760,3.307 411.000 C 3.463 409.240,3.447 406.720,3.271 405.400 C 2.994 403.318,2.924 403.822,2.745 409.200 M96.013 417.137 C 95.145 417.603,94.190 418.676,93.419 420.052 C 91.257 423.913,90.431 424.784,87.659 426.119 C 83.431 428.156,83.816 430.510,88.227 429.594 C 91.520 428.911,101.653 423.928,102.996 422.332 C 106.086 418.659,100.678 414.636,96.013 417.137 M372.826 421.614 C 374.173 422.335,373.379 424.800,371.800 424.800 C 370.247 424.800,369.656 423.144,370.800 422.000 C 371.725 421.075,371.794 421.062,372.826 421.614 M5.282 453.519 C 5.568 454.213,5.711 457.624,5.680 463.046 L 5.632 471.493 7.007 473.099 C 8.663 475.034,10.476 475.809,14.200 476.171 C 15.740 476.321,17.562 476.540,18.249 476.657 C 19.420 476.857,19.490 476.801,19.375 475.751 C 19.307 475.136,19.615 473.635,20.059 472.416 C 21.549 468.324,21.675 467.640,21.205 466.215 C 20.191 463.144,13.537 455.601,11.840 455.600 C 11.598 455.600,10.230 455.023,8.800 454.319 C 4.566 452.233,4.768 452.279,5.282 453.519 M353.400 454.002 C 352.520 454.443,350.648 455.785,349.240 456.984 C 345.631 460.057,342.142 461.765,337.400 462.782 C 332.164 463.904,330.793 464.849,328.999 468.566 C 327.454 471.769,326.088 473.382,323.785 474.724 C 316.389 479.032,315.830 479.446,313.406 482.400 C 309.849 486.734,308.553 487.355,302.681 487.538 C 295.808 487.753,291.709 486.324,289.767 483.037 C 287.681 479.505,284.414 477.812,277.285 476.569 C 275.437 476.246,272.276 475.426,270.262 474.745 C 267.183 473.703,265.677 473.454,260.800 473.177 C 252.676 472.715,249.765 471.705,246.400 468.183 C 239.941 461.424,232.722 460.011,226.144 464.218 C 223.811 465.711,221.717 466.394,219.467 466.398 C 218.623 466.399,218.003 466.535,218.088 466.700 C 221.500 473.329,220.566 480.140,215.802 483.373 C 214.970 483.938,214.471 484.400,214.694 484.400 C 216.828 484.400,219.422 489.190,218.254 490.974 C 217.659 491.882,217.676 491.898,219.525 492.131 C 228.420 493.254,231.612 493.581,235.600 493.779 C 238.130 493.905,241.910 494.320,244.000 494.701 C 248.745 495.565,314.543 495.724,320.064 494.884 C 322.057 494.581,330.939 494.386,345.464 494.327 C 367.168 494.238,368.455 494.031,351.200 493.402 C 341.790 493.059,340.269 492.691,335.069 489.501 C 329.689 486.200,329.042 485.195,329.279 480.506 C 329.634 473.503,331.945 471.602,340.369 471.382 C 343.147 471.310,345.218 471.038,346.400 470.590 C 347.390 470.214,349.358 469.506,350.774 469.016 C 353.028 468.234,353.220 468.092,352.324 467.867 C 350.224 467.340,349.730 463.421,351.649 462.506 C 354.503 461.144,357.411 464.989,355.200 467.200 L 354.400 468.000 356.145 468.000 C 357.105 468.000,358.816 468.175,359.946 468.390 C 361.292 468.645,362.361 468.643,363.043 468.384 L 364.084 467.988 363.810 464.294 C 363.130 455.112,359.113 451.140,353.400 454.002 M273.275 459.095 C 273.441 459.957,274.800 460.293,274.800 459.472 C 274.800 459.150,274.515 458.776,274.167 458.643 C 273.228 458.282,273.128 458.333,273.275 459.095 M200.897 464.198 C 198.369 465.296,198.200 468.367,200.404 473.149 C 202.030 476.676,202.954 477.601,201.951 474.697 C 200.465 470.397,201.109 466.675,203.692 464.640 L 205.000 463.609 203.600 463.620 C 202.830 463.626,201.614 463.886,200.897 464.198 M228.700 473.249 C 230.935 474.072,231.722 477.501,230.095 479.329 C 226.462 483.413,220.093 478.763,223.249 474.331 C 224.583 472.458,225.863 472.204,228.700 473.249 M146.000 473.027 C 137.169 474.811,135.972 474.908,126.200 474.632 C 115.358 474.327,114.327 474.454,108.289 476.850 C 105.933 477.785,102.833 478.646,100.489 479.015 C 95.389 479.820,93.189 480.557,89.800 482.596 C 83.936 486.125,82.777 486.342,77.755 484.846 C 72.869 483.391,71.956 483.651,69.861 487.099 C 65.776 493.825,60.590 494.034,53.976 487.739 C 49.412 483.396,45.909 483.506,43.570 488.066 C 39.587 495.834,24.857 493.991,22.260 485.400 C 21.928 484.300,21.643 483.600,21.628 483.845 C 21.583 484.566,16.878 486.665,13.104 487.648 C 11.182 488.149,9.760 488.658,9.945 488.779 C 11.297 489.669,11.510 492.034,10.420 494.068 L 9.640 495.523 10.646 495.776 C 11.200 495.915,12.946 495.914,14.527 495.775 C 17.556 495.507,22.850 496.019,27.200 497.002 C 31.218 497.909,52.154 497.853,59.910 496.914 C 63.484 496.481,67.451 496.262,70.000 496.356 C 72.310 496.441,80.590 496.494,88.400 496.474 C 96.210 496.454,105.480 496.448,109.000 496.461 C 158.043 496.641,158.869 496.630,161.200 495.726 C 174.078 490.737,178.391 490.019,186.000 491.600 C 190.981 492.635,192.212 492.604,196.014 491.347 C 198.932 490.383,200.090 489.600,198.600 489.600 C 197.646 489.600,197.710 489.620,191.000 487.279 C 184.029 484.847,182.766 484.686,175.990 485.363 C 171.808 485.781,169.862 484.979,165.727 481.132 C 161.371 477.079,149.692 472.281,146.000 473.027 M298.700 474.432 C 297.238 475.284,298.450 477.600,300.358 477.600 C 301.339 477.600,302.849 476.912,303.263 476.276 C 304.221 474.805,300.584 473.335,298.700 474.432 M397.714 483.400 C 397.717 484.500,397.795 484.903,397.887 484.295 C 397.979 483.686,397.977 482.786,397.882 482.295 C 397.787 481.803,397.711 482.300,397.714 483.400 M396.189 491.569 C 395.755 491.992,394.500 492.624,393.400 492.973 C 391.484 493.581,391.468 493.599,393.000 493.390 C 396.342 492.936,396.710 492.784,396.902 491.778 C 397.126 490.605,397.166 490.617,396.189 491.569 M388.505 493.887 C 389.114 493.979,390.014 493.977,390.505 493.882 C 390.997 493.787,390.500 493.711,389.400 493.714 C 388.300 493.717,387.897 493.795,388.505 493.887 " stroke="none" fill="#c4a135" fill-rule="evenodd"></path><path id="path1" d="M259.400 0.359 C 258.960 0.519,249.060 0.701,237.401 0.763 C 225.741 0.825,216.090 0.944,215.954 1.029 C 215.817 1.113,188.547 1.286,155.353 1.414 C 122.159 1.542,94.190 1.720,93.200 1.809 C 92.210 1.898,74.120 2.071,53.000 2.193 C 5.105 2.469,3.901 2.520,2.244 4.352 C 0.737 6.016,0.683 9.853,0.974 93.600 C 1.701 302.737,1.602 350.553,0.438 352.730 C 0.169 353.232,0.016 354.701,0.087 356.109 C 0.179 357.962,0.302 358.395,0.565 357.800 C 2.676 353.029,14.018 351.733,37.600 353.567 C 42.038 353.912,78.369 354.538,96.600 354.583 C 107.064 354.609,107.799 353.993,104.462 347.996 C 103.352 346.001,101.785 342.350,100.980 339.884 C 98.265 331.564,96.903 329.171,91.584 323.374 C 89.781 321.408,86.489 317.550,84.270 314.800 C 82.050 312.050,79.196 308.563,77.927 307.051 C 73.519 301.796,72.947 297.498,75.743 290.627 C 76.542 288.662,77.837 284.612,78.620 281.627 C 79.403 278.642,80.472 275.007,80.995 273.549 C 83.599 266.299,83.489 262.830,80.600 261.068 C 72.201 255.947,70.738 254.379,70.473 250.212 C 70.240 246.558,71.224 244.722,75.344 241.120 C 83.243 234.213,82.170 231.692,72.129 233.567 C 69.748 234.011,65.460 234.462,62.600 234.568 C 59.740 234.674,56.320 234.879,55.000 235.025 C 49.968 235.579,47.300 233.592,43.290 226.304 C 40.705 221.604,39.779 218.986,39.190 214.702 C 38.941 212.886,38.311 210.050,37.792 208.400 C 37.273 206.750,36.456 204.050,35.977 202.401 C 35.167 199.609,34.877 199.167,31.772 195.994 C 26.002 190.097,25.798 187.319,30.657 180.800 C 34.637 175.461,35.399 171.814,33.603 166.704 C 31.511 160.751,33.520 153.162,38.957 146.483 C 42.720 141.859,43.180 140.695,43.191 135.773 C 43.208 127.864,44.280 125.215,49.350 120.552 C 54.794 115.546,60.160 113.074,66.600 112.605 C 72.063 112.207,73.074 111.509,76.021 106.102 C 77.728 102.971,78.813 102.400,83.061 102.400 C 87.699 102.400,94.792 100.498,100.833 97.635 C 102.282 96.949,104.866 96.119,106.576 95.792 C 110.455 95.050,111.674 94.474,114.595 92.004 C 118.497 88.705,119.804 88.914,125.028 93.677 L 128.114 96.490 130.188 96.318 C 132.610 96.117,135.426 94.599,141.200 90.381 C 147.603 85.703,149.936 86.016,153.286 92.000 C 156.740 98.170,158.907 98.183,162.531 92.054 C 166.918 84.634,168.125 84.712,175.188 92.873 C 183.606 102.601,184.151 103.026,191.280 105.427 C 196.988 107.349,207.800 109.706,209.364 109.369 C 217.185 107.682,220.647 99.410,216.717 91.800 C 214.984 88.444,213.951 85.872,214.568 86.451 C 215.018 86.873,219.520 82.260,219.818 81.071 C 220.833 77.025,214.205 66.107,209.961 64.836 C 207.181 64.003,201.294 64.270,196.258 65.457 C 183.789 68.397,175.351 66.057,175.093 59.586 C 175.002 57.309,176.750 55.731,181.235 54.039 C 191.338 50.230,192.029 48.646,185.331 44.652 C 178.373 40.503,175.720 33.953,177.370 25.000 C 179.896 11.295,184.037 9.914,192.158 20.067 C 195.655 24.438,196.169 24.897,202.781 29.532 C 210.429 34.893,210.606 34.903,216.687 30.324 C 219.197 28.434,224.331 25.789,228.400 24.289 C 230.294 23.590,231.619 23.472,237.932 23.439 L 245.265 23.400 246.400 22.130 C 247.248 21.181,247.606 20.272,247.818 18.530 C 248.363 14.050,248.934 13.630,255.484 12.878 C 257.723 12.621,259.432 12.153,260.859 11.407 C 262.666 10.462,263.253 10.346,265.175 10.554 C 272.434 11.340,272.252 11.343,274.118 10.440 C 275.150 9.940,276.957 8.403,278.406 6.794 C 281.225 3.660,280.748 3.741,286.000 5.494 C 287.650 6.044,289.990 7.042,291.200 7.711 C 297.670 11.287,299.087 11.534,302.122 9.609 C 303.155 8.954,304.007 8.279,304.016 8.109 C 304.149 5.621,309.064 3.509,311.310 4.976 C 311.800 5.295,313.910 6.041,316.000 6.634 C 320.967 8.042,322.375 8.786,325.400 11.600 C 328.607 14.583,330.229 15.393,334.635 16.213 C 343.871 17.930,347.948 23.256,348.834 34.762 C 349.270 40.413,349.766 41.442,353.579 44.597 C 358.001 48.256,358.494 50.028,356.572 55.352 C 354.778 60.318,354.668 61.660,355.650 66.546 C 356.430 70.425,356.470 71.155,356.019 73.346 C 355.007 78.269,354.907 80.108,355.528 82.400 C 355.856 83.610,356.137 85.860,356.151 87.400 C 356.180 90.404,356.384 89.895,351.971 97.800 C 349.981 101.363,349.336 103.610,348.853 108.657 C 348.396 113.438,348.034 114.236,344.573 118.083 C 343.129 119.687,341.798 121.360,341.615 121.800 C 338.622 128.983,338.226 129.279,332.349 128.713 C 326.654 128.165,325.904 128.459,321.301 133.047 C 315.208 139.120,308.750 141.315,296.800 141.372 C 289.914 141.404,288.896 141.687,285.029 144.640 C 283.326 145.941,283.200 146.163,283.200 147.871 C 283.200 150.966,284.246 152.138,291.600 157.281 C 293.030 158.281,295.730 160.517,297.600 162.250 C 304.202 168.367,305.692 169.318,310.998 170.802 C 317.653 172.664,319.751 174.086,323.808 179.488 C 331.352 189.533,337.864 192.133,350.635 190.200 C 362.129 188.459,365.464 189.731,363.077 194.944 C 360.426 200.734,353.095 206.097,343.580 209.207 C 335.821 211.742,335.332 212.761,339.055 218.639 C 348.478 233.515,347.500 239.363,335.925 237.366 C 331.059 236.526,329.833 236.759,322.200 239.974 C 318.680 241.456,314.000 243.262,311.800 243.987 C 302.739 246.973,301.867 247.803,295.397 259.600 C 290.420 268.676,289.004 270.522,283.351 275.300 C 276.286 281.272,276.150 281.828,279.464 291.191 C 281.415 296.702,282.016 297.842,286.260 304.084 C 293.188 314.274,294.362 319.002,292.450 329.000 C 291.987 331.420,291.426 336.460,291.202 340.200 C 290.979 343.940,290.593 348.463,290.344 350.251 C 289.048 359.580,287.132 359.232,339.800 359.227 C 382.374 359.223,383.349 359.274,391.400 361.918 C 395.661 363.318,396.734 363.970,398.000 365.928 C 398.549 366.776,398.577 366.554,398.330 363.328 C 398.182 361.387,397.872 346.337,397.642 329.881 C 397.412 313.426,397.107 299.772,396.963 299.540 C 396.819 299.307,396.555 284.330,396.375 266.258 C 396.149 243.430,395.894 232.301,395.540 229.800 C 394.734 224.107,394.909 189.906,395.792 180.381 C 396.965 167.743,396.302 24.836,394.982 5.800 C 394.706 1.822,394.451 1.360,392.156 0.680 C 390.275 0.122,311.274 0.004,307.301 0.554 C 305.595 0.789,304.634 0.760,304.273 0.461 C 303.670 -0.040,260.766 -0.136,259.400 0.359 M231.836 114.360 C 230.195 116.174,231.386 119.537,233.973 120.391 C 236.928 121.366,238.382 119.928,237.382 117.018 C 236.307 113.892,233.484 112.539,231.836 114.360 M226.679 132.578 C 221.447 134.444,216.953 140.835,219.673 142.540 C 221.559 143.722,229.665 137.359,230.226 134.256 C 230.636 131.988,229.646 131.519,226.679 132.578 M330.000 295.496 C 332.879 296.682,333.500 299.886,331.282 302.101 L 329.981 303.400 325.158 303.400 C 318.966 303.400,318.020 302.438,319.975 298.131 C 321.469 294.841,325.707 293.727,330.000 295.496 M228.148 317.761 C 227.459 318.069,226.765 318.534,226.604 318.794 C 226.431 319.074,226.810 319.008,227.536 318.633 C 228.968 317.893,230.890 317.815,232.126 318.447 C 232.918 318.852,232.943 318.834,232.395 318.256 C 231.522 317.337,229.597 317.112,228.148 317.761 M232.070 387.653 C 230.975 389.002,229.341 389.169,227.692 388.100 L 226.613 387.400 227.534 388.701 C 229.408 391.347,231.405 391.123,232.657 388.126 C 233.405 386.335,233.244 386.205,232.070 387.653 M159.701 395.400 C 159.705 396.280,159.787 396.593,159.883 396.095 C 159.979 395.598,159.975 394.878,159.875 394.495 C 159.775 394.113,159.696 394.520,159.701 395.400 M160.028 397.440 C 159.984 398.126,160.756 400.245,162.667 404.685 C 164.527 409.007,165.424 412.111,166.987 419.628 C 170.142 434.808,178.240 441.311,199.600 445.818 C 206.820 447.342,217.526 447.246,222.000 445.617 C 222.550 445.417,224.636 444.614,226.635 443.833 C 230.179 442.447,231.049 442.248,235.600 441.782 C 250.842 440.222,253.867 439.056,257.857 433.203 C 262.650 426.172,261.457 420.466,254.800 418.579 C 251.028 417.509,250.943 417.520,253.176 418.782 C 258.412 421.744,259.497 425.171,257.168 431.393 C 254.949 437.320,252.674 438.415,241.236 439.065 C 230.418 439.679,229.400 439.875,223.998 442.384 C 215.769 446.206,208.407 446.568,195.200 443.800 C 178.608 440.322,171.303 433.989,167.978 420.200 C 165.770 411.044,164.798 407.889,162.924 403.800 C 161.916 401.600,160.859 399.170,160.574 398.400 C 160.289 397.630,160.044 397.198,160.028 397.440 M1.600 480.200 C 1.600 481.703,1.690 482.843,1.800 482.733 C 2.099 482.434,2.146 478.012,1.853 477.720 C 1.714 477.580,1.600 478.697,1.600 480.200 M0.300 486.231 C 0.135 486.397,-0.000 486.899,-0.000 487.347 C -0.000 487.935,0.121 488.039,0.438 487.722 C 0.678 487.482,0.813 486.980,0.738 486.607 C 0.662 486.233,0.465 486.064,0.300 486.231 M200.870 497.948 C 200.566 498.141,202.183 498.280,204.670 498.273 C 208.261 498.265,208.625 498.213,206.800 497.971 C 203.720 497.562,201.492 497.554,200.870 497.948 M172.000 498.404 C 170.790 498.555,172.950 498.591,176.800 498.484 C 180.650 498.377,183.875 498.224,183.967 498.145 C 184.250 497.899,174.330 498.114,172.000 498.404 " stroke="none" fill="#8fd0cd" fill-rule="evenodd"></path><path id="path2" d="M292.729 48.799 C 286.686 49.970,285.898 50.605,280.798 58.400 C 276.112 65.563,275.625 66.095,272.169 67.830 C 267.127 70.360,266.078 73.253,268.097 79.059 C 273.740 95.286,297.214 102.288,307.659 90.859 C 312.658 85.390,314.071 79.637,313.027 69.000 C 311.288 51.287,306.170 46.194,292.729 48.799 M294.279 64.438 C 300.378 67.391,298.406 77.453,291.885 76.657 C 284.762 75.788,284.841 64.223,291.974 63.646 C 292.289 63.621,293.327 63.977,294.279 64.438 M128.143 180.382 C 117.305 182.966,119.849 198.773,131.118 198.861 C 135.402 198.894,138.618 195.178,135.570 193.717 C 133.228 192.594,132.301 190.046,133.829 188.929 C 134.870 188.168,135.988 188.619,137.648 190.471 C 139.244 192.251,140.251 192.310,141.298 190.684 C 144.837 185.195,136.228 178.454,128.143 180.382 M176.519 188.401 C 175.258 188.915,173.779 191.393,172.965 194.356 C 172.359 196.564,171.863 197.340,169.331 200.047 C 166.076 203.528,165.984 203.835,167.009 207.771 C 167.875 211.094,167.431 211.953,163.200 215.157 C 159.158 218.217,156.160 228.061,158.402 230.911 C 162.266 235.824,167.961 229.758,169.396 219.200 C 169.530 218.210,169.729 217.099,169.837 216.732 C 169.945 216.365,170.108 215.677,170.199 215.204 C 170.290 214.732,171.369 213.306,172.597 212.037 C 178.382 206.056,183.289 197.930,183.261 194.374 C 183.229 190.258,179.680 187.114,176.519 188.401 M116.566 218.969 C 112.654 220.672,112.559 225.082,116.360 228.516 C 122.530 234.090,130.000 233.149,130.000 226.797 C 130.000 221.774,121.500 216.820,116.566 218.969 M179.800 267.865 C 179.140 268.213,178.240 268.822,177.800 269.219 C 177.360 269.616,176.190 270.421,175.200 271.009 C 174.210 271.596,173.760 271.956,174.200 271.808 C 181.606 269.325,182.609 269.619,193.577 277.494 C 206.219 286.571,210.369 288.129,223.708 288.807 C 228.334 289.042,232.282 289.439,233.222 289.763 C 234.422 290.176,234.724 290.191,234.417 289.820 C 233.607 288.844,230.916 288.000,225.462 287.013 C 211.766 284.533,207.262 282.499,192.200 271.990 C 185.347 267.209,182.708 266.331,179.800 267.865 M14.200 361.106 C 9.660 361.505,8.000 362.694,8.000 365.547 C 8.000 368.056,9.386 370.037,12.145 371.472 C 13.433 372.141,15.111 372.314,22.656 372.555 C 29.973 372.789,33.022 374.210,32.728 377.250 C 32.436 380.274,29.563 380.928,21.712 379.757 C 12.412 378.369,7.951 379.963,6.206 385.299 C 5.446 387.621,5.395 392.880,5.812 426.000 C 6.100 448.799,5.889 448.197,13.939 449.218 C 16.997 449.605,19.092 450.546,22.065 452.868 C 24.072 454.435,25.773 455.087,30.741 456.193 C 41.995 458.699,45.314 462.700,42.797 470.730 C 41.266 475.614,42.825 478.049,49.373 480.998 C 51.509 481.960,54.243 483.492,55.448 484.401 C 59.169 487.211,61.427 487.467,62.593 485.214 C 63.490 483.479,63.387 482.953,61.348 478.887 C 56.162 468.545,63.500 459.602,77.812 458.820 C 83.402 458.514,84.851 457.973,88.605 454.790 C 94.693 449.629,102.251 448.583,110.600 451.746 C 114.872 453.364,118.378 454.560,123.200 456.042 C 128.418 457.646,128.971 458.995,126.400 463.848 C 122.606 471.009,126.876 473.410,139.550 471.246 C 149.750 469.503,158.786 471.950,167.341 478.771 C 171.926 482.426,172.465 482.593,177.683 481.972 C 181.065 481.570,182.657 481.562,185.095 481.933 C 192.654 483.083,194.239 482.032,194.034 476.000 C 193.693 465.970,193.797 465.424,196.815 461.427 C 199.529 457.831,198.671 456.871,190.000 453.798 C 174.447 448.287,161.825 438.153,159.328 429.171 L 158.705 426.931 157.733 427.904 C 155.554 430.082,151.287 427.067,149.095 421.800 C 146.857 416.423,144.287 409.164,144.003 407.416 C 142.989 401.189,146.576 396.608,150.262 399.420 C 150.998 399.982,151.600 400.350,151.600 400.240 C 151.600 400.129,151.337 399.030,151.016 397.797 C 150.695 396.563,150.237 394.080,149.999 392.277 C 148.614 381.800,146.508 380.527,140.610 386.600 C 134.992 392.385,132.406 391.859,130.147 384.474 C 129.563 382.563,128.904 380.820,128.683 380.600 C 128.415 380.333,128.374 380.459,128.560 380.982 C 129.804 384.485,129.143 387.137,126.201 390.434 C 123.284 393.704,123.218 394.211,125.178 398.296 C 129.040 406.346,124.492 408.755,116.908 402.677 C 113.730 400.130,113.380 399.935,109.531 398.553 C 106.080 397.313,104.838 396.523,102.366 393.995 C 101.357 392.963,99.439 391.377,98.103 390.470 C 92.305 386.532,92.394 383.640,98.423 380.163 C 103.100 377.465,104.324 375.448,102.990 372.636 C 101.650 369.811,100.049 369.429,88.600 369.200 C 77.956 368.987,77.267 368.863,75.420 366.822 C 74.523 365.830,74.425 363.303,75.262 362.719 C 75.607 362.478,74.649 362.421,72.600 362.559 C 64.555 363.104,45.247 363.277,41.600 362.838 C 31.382 361.606,18.074 360.765,14.200 361.106 M369.058 377.626 C 368.480 378.080,367.359 379.565,366.566 380.926 C 365.773 382.287,364.718 383.940,364.221 384.600 C 361.171 388.656,361.248 389.908,364.770 393.486 C 366.576 395.321,368.041 397.295,368.980 399.160 C 372.651 406.450,376.120 407.825,380.944 403.899 C 382.092 402.965,384.285 401.480,385.816 400.600 C 397.849 393.685,397.320 382.495,384.867 380.538 C 382.501 380.166,379.483 379.323,377.092 378.365 C 372.658 376.590,370.614 376.402,369.058 377.626 M328.481 382.051 C 320.652 385.927,323.628 393.709,332.959 393.763 C 339.896 393.803,342.777 390.158,340.677 384.000 C 339.825 381.500,332.092 380.264,328.481 382.051 M84.073 395.269 C 86.995 396.145,88.782 399.178,87.449 401.001 C 85.869 403.161,77.600 400.295,77.600 397.587 C 77.600 395.641,81.114 394.383,84.073 395.269 M298.600 395.571 C 294.518 396.557,292.633 399.963,294.656 402.697 C 297.423 406.439,305.818 410.637,310.928 410.836 C 318.535 411.131,326.659 414.897,333.091 421.109 C 343.659 431.316,328.299 438.548,308.400 432.736 C 303.108 431.191,299.640 431.277,295.600 433.056 C 291.827 434.716,283.847 434.729,279.048 433.081 C 274.981 431.685,273.678 431.994,271.180 434.945 C 265.278 441.921,258.488 447.249,250.000 451.566 C 241.106 456.090,240.924 456.940,247.474 463.372 C 252.811 468.611,254.420 469.388,259.331 469.095 C 268.518 468.547,271.248 466.116,268.780 460.680 C 266.791 456.299,268.531 453.200,272.979 453.200 C 275.925 453.200,277.465 454.925,280.991 462.173 C 285.435 471.308,287.012 472.285,294.662 470.643 C 299.875 469.525,303.772 470.464,308.364 473.947 C 311.030 475.968,312.400 476.255,315.330 475.403 C 319.385 474.224,321.919 471.792,324.594 466.508 C 327.735 460.307,329.908 458.847,339.668 456.383 C 344.641 455.127,347.386 453.969,351.704 451.303 C 355.302 449.082,359.449 449.095,364.400 451.344 C 371.459 454.551,375.772 455.451,379.043 454.399 C 382.297 453.354,382.653 452.241,380.837 448.797 C 380.198 447.585,379.403 445.551,379.070 444.276 C 377.704 439.043,376.814 438.609,367.400 438.577 C 356.906 438.543,353.950 437.284,350.289 431.293 C 349.159 429.444,347.172 426.731,345.874 425.265 C 341.402 420.216,341.628 417.873,346.866 414.990 C 354.654 410.703,350.033 405.799,340.143 407.853 C 336.929 408.520,334.561 408.495,321.600 407.659 C 315.446 407.261,314.817 406.888,310.213 400.908 C 306.873 396.569,302.601 394.606,298.600 395.571 M104.597 414.800 C 110.919 417.965,110.720 424.077,104.187 427.377 C 102.421 428.270,99.729 429.891,98.204 430.980 C 92.987 434.707,86.073 435.878,78.305 434.349 C 71.388 432.989,74.376 427.554,84.653 422.800 C 87.326 421.563,88.205 420.912,89.578 419.147 C 93.610 413.969,94.353 413.548,99.200 413.696 C 101.887 413.778,103.019 414.010,104.597 414.800 M62.415 430.500 C 65.324 431.967,65.085 434.410,61.880 435.961 C 57.492 438.085,53.069 435.803,54.577 432.192 C 55.644 429.640,59.191 428.874,62.415 430.500 M77.680 473.280 C 76.627 474.333,77.436 476.000,79.000 476.000 C 80.084 476.000,80.800 475.269,80.800 474.163 C 80.800 472.869,78.688 472.272,77.680 473.280 M351.400 475.477 C 347.305 476.775,346.656 476.869,342.030 476.832 C 334.365 476.771,333.401 478.283,337.548 483.865 C 342.378 490.367,341.889 490.205,358.600 490.822 C 389.878 491.976,397.149 490.705,393.606 484.700 C 391.848 481.720,389.141 481.010,382.510 481.791 C 372.323 482.990,370.529 482.583,365.088 477.838 C 360.081 473.471,358.559 473.209,351.400 475.477 " stroke="none" fill="#7b3724" fill-rule="evenodd"></path><path id="path3" d="M183.339 20.988 C 181.118 22.543,179.652 29.787,180.744 33.806 C 181.947 38.234,185.614 41.419,191.764 43.377 C 199.931 45.977,199.104 50.706,189.491 56.373 C 185.760 58.573,185.120 59.444,186.447 60.519 C 188.074 61.836,204.130 60.276,212.734 57.964 C 217.696 56.631,220.903 56.423,222.665 57.322 C 225.934 58.990,231.902 54.796,235.027 48.634 C 237.400 43.955,237.964 43.249,240.943 41.233 C 246.900 37.203,248.381 32.431,244.318 30.358 C 237.700 26.982,231.921 27.431,226.268 31.761 C 223.263 34.063,219.152 36.151,214.875 37.548 C 209.162 39.415,207.584 39.121,204.151 35.555 C 202.858 34.212,200.000 31.707,197.800 29.988 C 195.600 28.269,192.630 25.665,191.200 24.201 C 187.499 20.413,185.390 19.551,183.339 20.988 M190.316 29.500 C 196.906 34.452,198.504 37.197,195.517 38.435 C 191.364 40.155,185.200 35.855,185.200 31.238 C 185.200 27.765,187.133 27.109,190.316 29.500 M227.609 40.805 C 228.729 41.404,229.021 43.705,228.238 45.757 C 227.141 48.630,226.223 49.177,219.702 50.850 C 216.456 51.683,212.450 52.742,210.800 53.204 C 203.898 55.136,201.477 51.639,206.466 46.945 C 210.337 43.303,224.559 39.173,227.609 40.805 M288.000 44.383 C 285.019 44.955,284.047 45.954,282.241 50.300 C 279.154 57.731,275.171 63.083,270.983 65.424 C 265.140 68.692,264.016 72.442,266.595 80.065 C 270.239 90.834,281.188 98.412,293.083 98.397 C 308.238 98.377,316.561 87.271,314.833 69.373 C 313.419 54.725,310.148 49.010,301.470 46.024 C 298.084 44.859,290.398 43.923,288.000 44.383 M304.409 49.443 C 309.845 52.402,311.842 56.935,313.027 69.000 C 314.071 79.637,312.658 85.390,307.659 90.859 C 297.214 102.288,273.740 95.286,268.097 79.059 C 266.078 73.253,267.127 70.360,272.169 67.830 C 275.625 66.095,276.112 65.563,280.798 58.400 C 285.898 50.605,286.686 49.970,292.729 48.799 C 298.012 47.775,301.719 47.979,304.409 49.443 M235.400 79.060 C 234.740 79.406,233.300 80.540,232.200 81.580 C 231.100 82.620,229.692 83.851,229.071 84.315 C 225.830 86.742,224.092 90.211,223.576 95.286 C 222.703 103.874,220.900 108.607,216.876 112.873 C 211.582 118.484,209.336 118.934,202.987 115.654 C 196.056 112.073,184.635 109.718,183.548 111.647 C 182.133 114.156,183.454 122.505,186.167 128.200 C 188.129 132.318,189.902 134.139,193.736 135.975 C 197.613 137.832,199.066 139.258,200.855 142.963 C 202.375 146.113,203.749 147.199,206.200 147.192 C 208.376 147.186,208.355 147.208,211.186 142.000 C 214.468 135.962,215.707 134.328,219.855 130.561 C 224.448 126.392,224.840 125.500,224.523 119.927 C 224.018 111.023,227.850 106.467,236.181 106.067 C 241.221 105.824,242.507 103.646,239.934 99.713 C 237.853 96.532,237.699 94.938,239.010 90.128 C 241.309 81.687,239.715 76.801,235.400 79.060 M202.487 161.170 C 199.256 163.725,197.051 168.924,197.990 171.770 C 199.670 176.861,205.762 174.262,208.013 167.495 C 210.079 161.282,206.918 157.665,202.487 161.170 M128.891 177.218 C 122.260 178.150,118.600 182.412,118.600 189.200 C 118.600 204.220,138.025 207.446,144.937 193.575 C 149.355 184.710,140.417 175.599,128.891 177.218 M134.447 180.569 C 140.893 182.526,143.795 186.811,141.298 190.684 C 140.251 192.310,139.244 192.251,137.648 190.471 C 135.988 188.619,134.870 188.168,133.829 188.929 C 132.301 190.046,133.228 192.594,135.570 193.717 C 140.413 196.039,132.925 200.102,127.267 198.222 C 115.292 194.245,122.349 176.897,134.447 180.569 M174.316 183.777 C 170.857 184.679,168.401 187.029,166.196 191.544 C 165.482 193.005,163.975 195.718,162.845 197.573 C 160.561 201.325,160.151 202.530,159.774 206.600 C 159.453 210.074,158.854 212.248,156.748 217.600 C 152.303 228.894,152.100 231.340,155.325 234.748 C 160.798 240.531,167.043 236.710,171.774 224.684 C 173.953 219.145,174.726 217.795,179.531 211.148 C 182.663 206.815,185.973 201.035,186.674 198.674 C 188.979 190.913,181.504 181.902,174.316 183.777 M180.773 189.118 C 185.692 192.785,182.463 201.838,172.597 212.037 C 171.369 213.306,170.290 214.732,170.199 215.204 C 170.108 215.677,169.945 216.365,169.837 216.732 C 169.729 217.099,169.530 218.210,169.396 219.200 C 167.961 229.758,162.266 235.824,158.402 230.911 C 156.160 228.061,159.158 218.217,163.200 215.157 C 167.431 211.953,167.875 211.094,167.009 207.771 C 165.984 203.835,166.076 203.528,169.331 200.047 C 171.863 197.340,172.359 196.564,172.965 194.356 C 174.529 188.660,177.492 186.673,180.773 189.118 M115.000 216.202 C 109.361 219.249,108.768 225.379,113.683 229.799 C 124.227 239.278,135.783 236.654,132.961 225.421 C 131.299 218.805,120.470 213.247,115.000 216.202 M304.800 216.278 C 302.379 217.181,301.477 219.732,300.771 227.676 C 299.628 240.535,301.758 242.777,309.574 236.942 C 316.495 231.775,312.271 213.494,304.800 216.278 M122.896 219.232 C 128.482 221.114,131.153 225.266,129.430 229.389 C 127.722 233.478,121.383 233.054,116.360 228.516 C 110.176 222.929,114.718 216.477,122.896 219.232 M319.900 230.432 C 317.885 231.605,319.552 233.165,321.812 232.221 C 323.281 231.607,323.300 231.573,322.596 230.796 C 321.804 229.921,320.971 229.808,319.900 230.432 M144.374 247.349 C 142.710 248.080,140.052 248.995,138.468 249.383 C 134.982 250.238,132.944 251.547,130.971 254.200 C 125.247 261.895,122.356 263.166,110.568 263.170 C 97.977 263.174,96.153 265.730,102.388 274.632 C 105.313 278.807,106.250 282.983,105.163 287.000 C 104.313 290.140,100.676 299.023,99.708 300.325 C 96.250 304.969,90.266 300.502,88.020 291.600 C 87.548 289.730,86.990 287.549,86.781 286.754 C 86.571 285.958,86.400 284.951,86.400 284.516 C 86.400 282.706,85.005 282.278,84.419 283.908 C 84.124 284.729,82.786 287.650,81.446 290.400 C 77.296 298.915,77.526 299.740,87.010 310.400 C 100.629 325.708,103.696 330.269,106.073 338.757 C 107.530 343.956,107.983 344.825,110.788 347.798 C 119.701 357.247,116.010 358.560,83.200 357.609 C 79.570 357.504,71.740 357.657,65.800 357.949 C 54.090 358.526,43.245 358.330,32.800 357.354 C 21.807 356.327,12.189 356.172,9.400 356.978 C 0.997 359.404,0.512 362.763,7.283 371.635 C 10.350 375.654,10.375 375.539,5.470 379.945 C 2.483 382.629,1.688 391.154,3.152 404.800 C 3.492 407.975,3.527 410.205,3.265 412.000 C 3.056 413.430,2.863 422.160,2.838 431.400 L 2.792 448.200 3.762 450.267 C 4.689 452.241,9.753 455.600,11.803 455.600 C 12.860 455.600,15.665 458.132,17.988 461.184 C 21.875 466.290,22.124 467.379,20.351 471.515 C 19.183 474.239,19.075 476.134,20.020 477.334 C 21.259 478.910,22.000 481.003,22.000 482.927 C 22.000 493.020,38.958 497.060,43.570 488.066 C 45.909 483.506,49.412 483.396,53.976 487.739 C 60.590 494.034,65.776 493.825,69.861 487.099 C 71.956 483.651,72.869 483.391,77.755 484.846 C 82.777 486.342,83.936 486.125,89.800 482.596 C 93.189 480.557,95.389 479.820,100.489 479.015 C 102.833 478.646,105.933 477.785,108.289 476.850 C 114.329 474.454,115.357 474.326,126.200 474.634 C 135.166 474.888,136.104 474.847,140.400 474.006 C 149.560 472.212,158.991 474.865,165.727 481.132 C 169.862 484.979,171.808 485.781,175.990 485.363 C 182.705 484.692,184.072 484.857,190.507 487.115 C 197.367 489.521,197.438 489.539,202.289 490.032 C 204.318 490.238,207.468 490.764,209.289 491.201 C 216.157 492.847,219.173 492.060,218.652 488.758 C 218.414 487.246,215.666 484.509,214.042 484.166 C 205.326 482.323,196.840 471.895,199.163 465.881 C 200.279 462.990,209.930 462.810,216.000 465.565 C 219.143 466.992,222.506 466.546,226.144 464.218 C 232.722 460.011,239.941 461.424,246.400 468.183 C 249.765 471.705,252.676 472.715,260.800 473.177 C 265.677 473.454,267.183 473.703,270.262 474.745 C 272.276 475.426,275.437 476.246,277.285 476.569 C 284.414 477.812,287.681 479.505,289.767 483.037 C 291.709 486.324,295.808 487.753,302.681 487.538 C 308.553 487.355,309.849 486.734,313.406 482.400 C 315.830 479.446,316.389 479.032,323.785 474.724 C 326.088 473.382,327.454 471.769,328.999 468.566 C 330.793 464.849,332.164 463.904,337.400 462.782 C 342.145 461.765,345.635 460.055,349.240 456.981 C 357.471 449.962,362.953 452.713,363.810 464.294 L 364.084 467.988 363.043 468.384 C 362.361 468.643,361.292 468.645,359.946 468.390 C 355.579 467.562,353.513 467.897,346.400 470.591 C 345.220 471.037,343.143 471.310,340.369 471.382 C 331.945 471.602,329.634 473.503,329.279 480.506 C 329.042 485.193,329.689 486.199,335.069 489.506 C 340.083 492.588,342.123 493.107,350.200 493.358 C 353.720 493.467,360.430 493.776,365.111 494.043 C 371.672 494.418,375.617 494.423,382.332 494.066 C 397.087 493.282,398.649 492.235,397.650 483.800 C 396.455 473.701,393.883 469.320,387.655 466.774 C 382.474 464.655,381.210 462.876,382.973 460.186 C 384.251 458.234,388.434 456.511,392.100 456.426 C 392.705 456.412,393.200 456.209,393.200 455.976 C 393.200 455.743,393.382 455.665,393.604 455.802 C 394.408 456.299,395.600 455.565,395.600 454.573 C 395.600 454.038,395.420 453.600,395.200 453.600 C 394.980 453.600,394.800 453.361,394.800 453.070 C 394.800 451.876,391.677 449.977,387.037 448.349 C 384.865 447.586,383.356 446.050,382.839 444.076 C 382.597 443.154,382.203 441.646,381.961 440.724 C 380.920 436.746,377.173 435.358,368.600 435.774 C 359.102 436.235,354.972 434.564,352.161 429.124 C 351.785 428.396,350.515 426.394,349.339 424.676 C 346.203 420.096,346.284 419.717,351.113 416.365 C 359.625 410.458,351.846 402.277,340.275 404.967 C 336.832 405.767,333.646 405.768,326.600 404.972 C 316.047 403.779,317.206 404.335,310.932 397.453 C 304.253 390.127,290.000 392.140,290.000 400.410 C 290.000 404.857,299.793 411.696,309.200 413.818 C 324.127 417.185,325.212 417.593,329.062 421.288 C 331.957 424.065,332.800 425.382,332.800 427.126 C 332.800 431.853,320.833 433.482,309.694 430.270 C 303.369 428.446,300.548 428.296,297.000 429.596 C 291.582 431.581,291.127 431.666,287.000 431.478 C 278.776 431.102,276.866 428.591,279.012 420.975 C 279.631 418.779,279.760 417.443,279.588 414.975 C 279.296 410.798,279.640 409.083,281.171 407.067 C 284.397 402.819,284.618 400.988,282.500 396.077 L 281.000 392.600 281.008 386.400 C 281.024 373.374,283.360 369.449,291.000 369.607 C 295.742 369.704,296.710 369.628,300.000 368.897 C 303.978 368.013,311.149 368.041,315.600 368.958 C 317.882 369.429,322.353 369.778,329.200 370.023 C 334.810 370.223,340.480 370.569,341.800 370.791 C 343.120 371.013,347.980 371.197,352.600 371.200 C 367.076 371.208,368.704 373.037,361.441 381.132 C 355.756 387.470,355.765 390.923,361.477 394.853 C 364.195 396.722,365.072 397.776,366.852 401.309 C 367.984 403.557,369.412 405.461,372.003 408.182 C 374.727 411.041,375.939 412.683,377.045 415.014 C 378.870 418.859,380.924 420.400,384.224 420.400 C 389.892 420.400,390.909 414.653,385.994 410.395 C 382.572 407.430,382.878 405.891,387.509 402.764 C 390.439 400.786,394.538 396.866,395.380 395.238 C 396.709 392.669,397.600 389.313,397.600 386.879 L 397.600 384.331 395.453 382.200 C 392.573 379.344,390.738 378.489,385.941 377.772 C 378.830 376.709,374.737 374.006,376.924 371.819 C 377.405 371.338,380.611 370.260,384.608 369.235 C 388.405 368.262,388.354 367.471,384.400 365.967 C 378.384 363.677,378.726 363.690,332.800 364.112 C 293.083 364.477,288.215 363.926,285.582 358.766 C 284.662 356.961,284.611 354.782,285.404 351.200 C 285.721 349.770,286.163 345.450,286.386 341.600 C 286.609 337.750,287.185 331.736,287.666 328.236 C 289.168 317.307,287.089 311.550,278.502 302.867 L 275.184 299.511 273.292 299.740 C 266.750 300.531,265.179 303.653,268.378 309.509 C 271.850 315.865,272.390 318.002,272.399 325.400 C 272.404 329.922,273.462 338.330,274.800 344.484 C 276.915 354.211,276.725 357.693,273.729 364.200 C 272.715 366.400,271.366 370.244,270.730 372.743 C 268.439 381.739,265.338 384.810,257.157 386.189 C 247.864 387.754,245.551 390.962,248.116 398.723 C 248.894 401.075,249.652 403.900,249.802 405.000 C 250.568 410.644,254.084 412.171,258.833 408.921 C 266.396 403.747,270.460 406.057,270.733 415.688 C 271.008 425.346,269.078 430.298,262.227 437.522 C 257.066 442.965,250.008 446.737,237.000 451.004 C 219.548 456.729,191.699 453.192,176.946 443.375 C 167.477 437.075,164.693 432.901,162.821 422.200 C 161.377 413.942,160.271 410.038,157.647 403.937 C 154.328 396.220,153.836 393.299,155.046 388.474 C 156.956 380.859,154.112 372.464,146.575 363.467 C 141.964 357.963,140.850 355.777,140.119 350.800 C 138.467 339.565,138.207 338.899,132.394 331.000 C 125.334 321.407,125.351 320.731,132.769 316.412 C 147.509 307.827,150.266 302.493,146.613 289.621 C 144.789 283.193,144.743 280.183,146.369 273.677 C 147.011 271.104,147.833 267.380,148.193 265.400 C 148.554 263.420,149.369 259.730,150.005 257.200 C 151.619 250.778,151.744 249.848,151.208 248.223 C 150.344 245.608,148.793 245.409,144.374 247.349 M174.800 263.810 C 170.914 265.418,168.881 265.453,163.794 263.998 C 153.910 261.172,152.436 268.650,160.305 281.703 C 166.902 292.646,167.393 296.346,163.362 304.742 C 159.665 312.446,161.041 315.270,170.102 318.574 C 171.148 318.956,173.064 320.048,174.359 321.001 C 179.264 324.612,180.836 324.907,188.199 323.600 C 194.700 322.446,199.628 322.625,205.400 324.224 C 214.891 326.855,217.361 325.863,219.410 318.600 C 220.662 314.163,224.167 311.707,231.374 310.218 C 236.178 309.226,236.769 309.452,241.200 313.986 C 246.620 319.532,249.035 320.052,253.995 316.740 C 259.848 312.832,260.629 308.882,256.601 303.566 C 253.514 299.491,253.688 299.060,258.996 297.618 C 267.506 295.306,266.914 287.718,258.239 287.901 C 255.669 287.955,254.397 287.741,251.439 286.756 C 247.574 285.469,240.164 284.470,228.200 283.623 C 219.833 283.030,214.924 281.722,208.400 278.347 C 204.762 276.465,205.535 276.966,196.283 270.500 C 183.929 261.867,181.399 261.079,174.800 263.810 M186.221 268.200 C 187.310 268.750,190.000 270.456,192.200 271.990 C 207.259 282.496,211.747 284.524,225.462 287.017 C 240.646 289.776,241.512 297.592,227.251 303.150 C 219.294 306.251,217.963 306.560,214.216 306.177 C 210.128 305.760,206.160 305.748,202.600 306.142 C 197.427 306.715,195.304 304.703,195.559 299.469 C 195.948 291.469,195.602 289.921,193.081 288.384 C 191.457 287.394,189.920 287.397,186.736 288.395 C 178.733 290.903,170.494 286.874,166.168 278.337 C 164.084 274.224,165.063 272.660,169.978 272.250 C 173.381 271.966,175.326 271.244,177.447 269.477 C 180.472 266.956,183.025 266.584,186.221 268.200 M153.246 335.032 C 152.287 336.252,152.150 337.906,152.922 338.962 C 154.396 340.977,157.610 337.483,156.351 335.233 C 155.546 333.794,154.284 333.713,153.246 335.032 M31.400 361.801 C 34.920 362.119,39.510 362.586,41.600 362.838 C 47.584 363.559,71.535 362.958,77.503 361.937 C 78.937 361.691,80.985 361.636,82.303 361.806 C 83.566 361.970,91.530 362.136,100.000 362.175 C 117.919 362.256,118.252 362.318,121.246 366.106 C 123.706 369.218,128.390 378.944,130.192 384.680 C 132.443 391.846,135.049 392.327,140.610 386.600 C 146.495 380.540,148.603 381.799,149.990 392.200 C 150.632 397.017,151.546 400.277,153.185 403.600 C 156.553 410.425,158.328 416.787,158.655 423.200 C 159.016 430.288,160.272 433.352,164.774 438.127 C 170.967 444.698,179.797 450.183,190.000 453.798 C 198.671 456.871,199.529 457.831,196.815 461.427 C 193.797 465.424,193.693 465.970,194.034 476.000 C 194.239 482.032,192.654 483.083,185.095 481.933 C 182.657 481.562,181.065 481.570,177.683 481.972 C 172.465 482.593,171.926 482.426,167.341 478.771 C 158.786 471.950,149.750 469.503,139.550 471.246 C 126.876 473.410,122.606 471.009,126.400 463.848 C 128.971 458.995,128.418 457.646,123.200 456.042 C 118.378 454.560,114.872 453.364,110.600 451.746 C 102.251 448.583,94.693 449.629,88.605 454.790 C 84.851 457.973,83.402 458.514,77.812 458.820 C 63.500 459.602,56.162 468.545,61.348 478.887 C 63.387 482.953,63.490 483.479,62.593 485.214 C 61.427 487.467,59.169 487.211,55.448 484.401 C 54.243 483.492,51.509 481.960,49.373 480.998 C 42.825 478.049,41.266 475.614,42.797 470.730 C 45.314 462.700,41.995 458.699,30.741 456.193 C 25.773 455.087,24.072 454.435,22.065 452.868 C 19.092 450.546,16.997 449.605,13.939 449.218 C 5.889 448.197,6.100 448.799,5.812 426.000 C 5.395 392.880,5.446 387.621,6.206 385.299 C 7.951 379.963,12.412 378.369,21.712 379.757 C 29.563 380.928,32.436 380.274,32.728 377.250 C 33.022 374.210,29.973 372.789,22.656 372.555 C 13.302 372.257,12.327 372.068,10.178 370.138 C 6.621 366.946,7.472 362.114,11.712 361.422 C 15.263 360.842,22.297 360.977,31.400 361.801 M339.439 376.656 C 338.581 376.966,336.305 377.382,334.381 377.581 C 327.809 378.261,324.819 380.086,322.423 384.880 C 318.713 392.304,323.103 396.800,334.060 396.800 C 340.942 396.800,343.716 394.816,345.807 388.400 C 346.202 387.190,346.961 385.506,347.494 384.657 C 350.890 379.255,345.921 374.318,339.439 376.656 M377.092 378.365 C 379.483 379.323,382.501 380.166,384.867 380.538 C 397.320 382.495,397.849 393.685,385.816 400.600 C 384.285 401.480,382.092 402.965,380.944 403.899 C 376.120 407.825,372.651 406.450,368.980 399.160 C 368.041 397.295,366.576 395.321,364.770 393.486 C 361.248 389.908,361.171 388.656,364.221 384.600 C 364.718 383.940,365.773 382.287,366.566 380.926 C 369.289 376.253,370.862 375.871,377.092 378.365 M337.600 381.927 C 341.091 382.831,342.444 386.957,340.499 390.773 C 337.369 396.917,322.630 393.704,324.355 387.253 C 325.769 381.965,330.459 380.080,337.600 381.927 M302.800 395.633 C 305.446 396.242,308.043 398.090,310.213 400.908 C 314.817 406.888,315.446 407.261,321.600 407.659 C 334.561 408.495,336.929 408.520,340.143 407.853 C 350.033 405.799,354.654 410.703,346.866 414.990 C 341.628 417.873,341.402 420.216,345.874 425.265 C 347.172 426.731,349.159 429.444,350.289 431.293 C 353.950 437.284,356.906 438.543,367.400 438.577 C 376.814 438.609,377.704 439.043,379.070 444.276 C 379.403 445.551,380.198 447.585,380.837 448.797 C 384.487 455.720,376.693 456.928,364.400 451.344 C 359.449 449.095,355.302 449.082,351.704 451.303 C 347.386 453.969,344.641 455.127,339.668 456.383 C 329.908 458.847,327.735 460.307,324.594 466.508 C 321.919 471.792,319.385 474.224,315.330 475.403 C 312.400 476.255,311.030 475.968,308.364 473.947 C 303.772 470.464,299.875 469.525,294.662 470.643 C 287.012 472.285,285.435 471.308,280.991 462.173 C 277.465 454.925,275.925 453.200,272.979 453.200 C 268.531 453.200,266.791 456.299,268.780 460.680 C 271.248 466.116,268.518 468.547,259.331 469.095 C 254.420 469.388,252.811 468.611,247.474 463.372 C 240.924 456.940,241.106 456.090,250.000 451.566 C 258.488 447.249,265.278 441.921,271.180 434.945 C 273.678 431.994,274.981 431.685,279.048 433.081 C 283.847 434.729,291.827 434.716,295.600 433.056 C 299.640 431.277,303.108 431.191,308.400 432.736 C 324.507 437.441,339.545 433.272,336.391 424.977 C 335.915 423.724,331.211 419.076,327.915 416.602 C 324.568 414.089,315.507 411.014,310.928 410.836 C 305.818 410.637,297.423 406.439,294.656 402.697 C 291.699 398.700,296.820 394.258,302.800 395.633 M94.586 414.141 C 93.261 414.739,92.132 415.867,89.578 419.147 C 88.205 420.912,87.326 421.563,84.653 422.800 C 81.260 424.369,77.351 427.076,75.544 429.108 C 69.546 435.850,89.122 437.468,98.204 430.980 C 99.729 429.891,102.421 428.270,104.187 427.377 C 109.432 424.727,110.577 421.546,107.753 417.472 C 105.515 414.243,98.365 412.434,94.586 414.141 M101.274 416.786 C 104.025 417.934,104.745 420.253,102.996 422.332 C 101.653 423.928,91.520 428.911,88.227 429.594 C 83.816 430.510,83.431 428.156,87.659 426.119 C 90.431 424.784,91.257 423.913,93.419 420.052 C 95.204 416.865,98.338 415.562,101.274 416.786 M370.800 422.000 C 369.656 423.144,370.247 424.800,371.800 424.800 C 373.379 424.800,374.173 422.335,372.826 421.614 C 371.794 421.062,371.725 421.075,370.800 422.000 M56.485 430.203 C 53.714 431.406,53.535 435.113,56.189 436.322 C 58.492 437.371,63.022 436.227,64.031 434.341 C 65.700 431.224,60.588 428.420,56.485 430.203 M108.315 456.956 C 113.778 459.781,112.770 465.600,106.818 465.600 C 103.150 465.600,100.390 463.303,100.413 460.269 C 100.441 456.586,104.394 454.928,108.315 456.956 M274.167 458.643 C 274.515 458.776,274.800 459.150,274.800 459.472 C 274.800 460.293,273.441 459.957,273.275 459.095 C 273.128 458.333,273.228 458.282,274.167 458.643 M224.949 472.804 C 222.388 473.809,221.623 477.562,223.580 479.519 C 227.108 483.047,233.007 479.052,230.415 474.890 C 229.343 473.168,226.645 472.139,224.949 472.804 M80.167 473.043 C 80.913 473.329,81.006 474.834,80.320 475.520 C 79.278 476.562,77.200 475.816,77.200 474.400 C 77.200 473.092,78.613 472.446,80.167 473.043 M302.159 474.454 C 303.845 475.222,303.833 476.242,302.126 477.140 C 300.894 477.789,299.586 477.711,298.731 476.938 C 296.681 475.082,299.327 473.164,302.159 474.454 M360.629 474.586 C 361.400 474.909,363.407 476.372,365.088 477.838 C 370.529 482.583,372.323 482.990,382.510 481.791 C 389.141 481.010,391.848 481.720,393.606 484.700 C 397.149 490.705,389.878 491.976,358.600 490.822 C 341.889 490.205,342.378 490.367,337.548 483.865 C 333.401 478.283,334.365 476.771,342.030 476.832 C 346.656 476.869,347.305 476.775,351.400 475.477 C 356.283 473.930,358.537 473.712,360.629 474.586 M7.987 488.809 C 4.812 489.671,4.403 491.301,6.710 493.900 C 8.442 495.851,9.238 496.012,10.164 494.598 C 12.209 491.478,10.907 488.018,7.987 488.809 " stroke="none" fill="#6e7d39" fill-rule="evenodd"></path><path id="path4" d="M0.012 176.700 C 0.021 306.414,0.142 353.197,0.469 352.635 C 1.598 350.690,1.695 300.848,0.974 93.600 C 0.683 9.853,0.737 6.016,2.244 4.352 C 3.901 2.520,5.105 2.469,53.000 2.193 C 74.120 2.071,92.210 1.898,93.200 1.809 C 94.190 1.720,122.159 1.542,155.353 1.414 C 188.547 1.286,215.817 1.113,215.954 1.029 C 216.090 0.944,225.741 0.825,237.401 0.763 C 249.060 0.701,258.960 0.515,259.400 0.350 C 259.840 0.186,201.655 0.039,130.100 0.025 L 0.000 0.000 0.012 176.700 M279.505 0.283 C 280.002 0.379,280.722 0.375,281.105 0.275 C 281.487 0.175,281.080 0.096,280.200 0.101 C 279.320 0.105,279.007 0.187,279.505 0.283 M304.229 0.447 C 304.411 0.741,305.389 0.816,307.101 0.665 C 310.742 0.345,310.712 0.000,307.043 0.000 C 304.869 0.000,304.035 0.132,304.229 0.447 M390.800 0.400 C 391.130 0.613,391.785 0.791,392.256 0.794 C 394.112 0.807,394.731 1.941,394.990 5.800 C 396.306 25.433,396.960 167.797,395.792 180.381 C 394.907 189.926,394.733 224.116,395.542 229.800 C 395.894 232.275,396.165 243.214,396.408 264.800 C 396.602 282.070,396.943 300.700,397.165 306.200 C 397.387 311.700,397.576 323.419,397.584 332.241 C 397.604 352.816,398.218 365.537,399.599 374.000 C 399.761 374.990,399.917 291.245,399.947 187.900 L 400.000 0.000 395.100 0.006 C 391.789 0.010,390.395 0.138,390.800 0.400 M324.107 294.832 C 320.569 295.555,317.988 300.189,319.768 302.624 C 320.275 303.318,320.845 303.400,325.158 303.400 L 329.981 303.400 331.282 302.101 C 335.015 298.373,330.275 293.570,324.107 294.832 M227.697 318.530 C 223.726 320.735,225.490 330.809,230.021 331.805 C 234.214 332.726,236.778 325.429,233.999 320.484 C 232.671 318.120,229.952 317.278,227.697 318.530 M224.353 375.953 C 221.658 378.648,222.547 382.968,226.637 387.058 C 232.182 392.603,237.315 381.891,231.848 376.185 C 229.428 373.660,226.730 373.576,224.353 375.953 M163.400 389.365 C 159.027 391.308,158.883 394.947,162.838 403.600 C 164.795 407.882,165.754 410.980,167.978 420.200 C 171.303 433.989,178.608 440.322,195.200 443.800 C 208.407 446.568,215.769 446.206,223.998 442.384 C 229.400 439.875,230.418 439.679,241.236 439.065 C 252.674 438.415,254.949 437.320,257.168 431.393 C 259.914 424.059,258.298 421.027,249.593 417.179 C 243.114 414.315,241.640 414.022,232.942 413.860 C 224.267 413.698,219.365 412.864,213.400 410.533 C 211.420 409.759,206.200 407.869,201.800 406.333 C 191.945 402.892,180.668 397.288,175.116 393.072 C 169.592 388.879,166.614 387.936,163.400 389.365 M399.720 402.400 C 399.720 403.610,399.795 404.105,399.887 403.500 C 399.978 402.895,399.978 401.905,399.887 401.300 C 399.795 400.695,399.720 401.190,399.720 402.400 M399.714 410.200 C 399.717 411.300,399.795 411.703,399.887 411.095 C 399.979 410.486,399.977 409.586,399.882 409.095 C 399.787 408.603,399.711 409.100,399.714 410.200 M399.750 417.400 C 399.751 419.820,399.816 420.758,399.896 419.485 C 399.976 418.212,399.975 416.232,399.894 415.085 C 399.814 413.938,399.749 414.980,399.750 417.400 M0.012 470.180 C 0.005 479.241,0.152 486.390,0.341 486.180 C 1.487 484.903,1.635 482.040,1.242 468.704 C 0.664 449.070,0.027 449.833,0.012 470.180 M0.000 497.200 L 0.000 500.000 2.000 500.000 C 4.345 500.000,4.367 499.958,2.805 498.465 C 2.148 497.838,1.336 496.666,1.000 495.862 C 0.144 493.814,0.000 494.007,0.000 497.200 M398.800 495.638 C 397.147 497.680,395.020 498.004,380.800 498.383 C 370.691 498.652,240.352 498.628,194.400 498.348 C 184.961 498.291,172.079 498.622,146.600 499.578 C 142.200 499.743,197.415 499.905,269.300 499.939 L 400.000 500.000 400.000 497.200 C 400.000 495.660,399.955 494.401,399.900 494.401 C 399.845 494.402,399.350 494.958,398.800 495.638 " stroke="none" fill="#e7efe6" fill-rule="evenodd"></path><path id="path5" d="M185.862 28.731 C 183.204 31.668,186.833 37.385,192.045 38.473 C 197.467 39.605,198.624 36.814,194.361 32.887 C 189.342 28.264,187.223 27.228,185.862 28.731 M219.400 41.378 C 209.026 44.081,204.000 47.395,204.000 51.531 C 204.000 53.876,206.341 54.452,210.800 53.204 C 212.450 52.742,216.456 51.683,219.702 50.850 C 226.223 49.177,227.141 48.630,228.238 45.757 C 230.151 40.747,227.280 39.324,219.400 41.378 M290.600 63.893 C 284.581 65.400,285.637 75.894,291.885 76.657 C 298.406 77.453,300.378 67.391,294.279 64.438 C 292.536 63.595,292.069 63.525,290.600 63.893 M177.000 271.023 C 175.900 271.359,173.040 271.866,170.645 272.149 C 164.860 272.831,163.989 274.036,166.168 278.337 C 170.494 286.874,178.733 290.903,186.736 288.395 C 189.920 287.397,191.457 287.394,193.081 288.384 C 195.602 289.921,195.948 291.469,195.559 299.469 C 195.304 304.703,197.427 306.715,202.600 306.142 C 206.160 305.748,210.128 305.760,214.216 306.177 C 217.963 306.560,219.294 306.251,227.251 303.150 C 234.527 300.315,237.722 297.106,237.016 293.343 C 236.417 290.154,233.976 289.331,223.546 288.799 C 210.387 288.129,206.178 286.541,193.577 277.494 C 183.489 270.251,181.749 269.572,177.000 271.023 M77.800 361.847 C 75.735 362.358,74.797 362.941,74.737 363.749 C 74.397 368.311,76.017 368.948,88.600 369.200 C 100.049 369.429,101.650 369.811,102.990 372.636 C 104.324 375.448,103.100 377.465,98.423 380.163 C 92.394 383.640,92.305 386.532,98.103 390.470 C 99.439 391.377,101.357 392.963,102.366 393.995 C 104.838 396.523,106.080 397.313,109.531 398.553 C 113.380 399.935,113.730 400.130,116.908 402.677 C 124.492 408.755,129.040 406.346,125.178 398.296 C 123.229 394.234,123.297 393.633,126.052 390.619 C 130.301 385.970,130.148 383.291,125.027 372.638 C 120.018 362.219,120.113 362.260,100.600 362.176 C 92.460 362.141,84.180 362.008,82.200 361.881 C 80.220 361.753,78.240 361.738,77.800 361.847 M80.257 395.211 C 78.811 395.645,77.600 396.728,77.600 397.587 C 77.600 400.295,85.869 403.161,87.449 401.001 C 89.641 398.002,84.569 393.919,80.257 395.211 M146.251 399.231 C 142.429 402.238,143.069 407.322,149.095 421.800 C 152.700 430.460,159.194 431.179,158.676 422.860 C 157.837 409.383,150.671 395.755,146.251 399.231 " stroke="none" fill="#2d3223" fill-rule="evenodd"></path><path id="path6" d="M308.200 15.317 C 303.458 17.524,298.468 17.650,291.500 15.738 C 290.997 15.600,290.800 15.779,290.800 16.373 C 290.800 16.828,290.640 17.200,290.443 17.200 C 290.247 17.200,289.979 17.630,289.847 18.155 C 289.455 19.717,287.127 21.456,284.946 21.818 C 283.876 21.995,282.865 22.176,282.700 22.220 C 282.535 22.264,282.143 22.323,281.829 22.350 C 281.514 22.377,280.974 22.683,280.629 23.029 C 280.283 23.374,280.000 23.538,280.000 23.392 C 280.000 23.246,279.213 24.088,278.250 25.263 C 277.288 26.438,275.688 28.003,274.696 28.740 C 270.257 32.036,271.717 34.653,277.630 33.999 C 293.713 32.223,299.384 33.187,308.600 39.266 C 318.781 45.981,322.312 53.861,323.448 72.400 C 324.260 85.670,318.539 97.061,307.792 103.570 C 297.216 109.976,275.787 107.351,265.262 98.361 C 261.791 95.396,261.459 95.450,260.317 99.170 C 259.314 102.438,257.982 104.467,255.048 107.200 C 251.530 110.477,249.714 113.724,251.141 114.185 C 252.142 114.508,254.314 116.680,255.497 118.539 C 258.078 122.599,259.183 123.264,264.536 123.982 C 271.442 124.907,277.669 128.277,281.259 133.031 C 283.785 136.378,284.926 136.681,289.051 135.100 C 291.131 134.303,291.413 134.063,291.513 133.000 C 292.012 127.710,298.808 127.369,301.491 132.500 C 302.676 134.764,303.275 134.852,308.956 133.597 C 313.588 132.572,315.197 131.576,319.021 127.364 C 322.957 123.028,324.171 122.421,328.920 122.409 C 333.456 122.397,333.821 122.187,338.450 116.929 C 343.191 111.545,343.077 111.767,343.767 106.519 C 344.367 101.950,345.386 98.926,348.388 92.800 C 350.588 88.310,350.535 86.311,348.104 82.200 C 345.613 77.987,345.606 77.782,347.802 73.417 L 349.695 69.653 349.255 65.920 C 348.818 62.219,349.035 59.326,349.996 56.003 C 351.010 52.496,350.197 50.057,347.215 47.660 C 344.542 45.512,343.900 43.788,343.548 37.800 C 342.950 27.661,340.550 23.916,333.400 21.970 C 328.931 20.753,326.627 19.653,323.474 17.231 C 317.842 12.905,314.327 12.465,308.200 15.317 M241.965 55.312 C 237.558 58.282,237.987 62.160,243.088 65.459 C 247.934 68.593,249.273 71.329,249.968 79.518 C 250.339 83.879,251.176 85.129,254.455 86.218 C 258.557 87.581,258.978 86.708,257.627 79.647 C 256.693 74.769,256.590 71.434,257.258 67.805 C 257.941 64.101,257.703 63.630,254.316 61.974 C 251.981 60.832,250.993 60.045,249.357 58.019 C 246.286 54.217,244.539 53.577,241.965 55.312 M137.400 101.212 C 132.938 101.909,127.842 104.550,127.443 106.371 C 127.247 107.267,126.932 108.000,126.743 108.000 C 126.554 108.000,126.400 108.351,126.400 108.781 C 126.400 112.811,113.238 116.458,108.191 113.826 C 107.536 113.484,106.788 113.204,106.529 113.202 C 106.270 113.201,105.370 112.308,104.529 111.217 C 103.688 110.126,102.820 109.226,102.600 109.216 C 102.380 109.205,100.850 108.664,99.200 108.012 C 95.595 106.588,92.910 106.471,89.882 107.604 L 87.735 108.407 87.913 110.559 C 88.191 113.912,86.347 115.766,82.713 115.786 C 80.513 115.798,79.921 115.965,78.650 116.935 C 77.832 117.559,75.821 118.689,74.181 119.447 C 72.450 120.247,71.200 121.071,71.200 121.412 C 71.200 121.735,71.020 122.000,70.800 122.000 C 70.580 122.000,70.394 122.405,70.386 122.900 C 70.341 125.717,59.064 133.480,53.356 134.624 C 53.111 134.673,52.167 134.577,51.256 134.410 C 49.351 134.062,49.275 134.208,48.424 139.914 C 48.007 142.702,46.998 145.329,45.434 147.700 C 45.035 148.305,44.902 148.800,45.139 148.800 C 46.442 148.800,46.375 153.171,45.022 156.448 C 44.824 156.928,45.233 157.377,46.593 158.175 C 54.055 162.548,54.009 167.087,46.479 169.484 C 43.492 170.435,41.588 172.227,39.904 175.674 C 39.117 177.283,37.447 179.860,36.191 181.400 C 31.607 187.023,31.695 188.544,36.854 192.887 C 39.473 195.091,40.175 196.396,41.034 200.663 C 41.381 202.388,42.090 205.173,42.610 206.851 C 43.130 208.528,43.826 211.451,44.157 213.346 C 45.610 221.670,48.848 224.749,54.500 223.179 C 55.558 222.885,56.000 222.539,56.000 222.006 C 56.000 221.551,56.279 221.251,56.700 221.254 C 57.662 221.259,58.726 221.007,59.031 220.702 C 59.356 220.377,60.376 221.300,60.134 221.700 C 60.035 221.865,60.525 222.000,61.223 222.000 C 62.497 222.000,63.497 222.831,66.454 226.347 C 68.168 228.385,76.125 227.370,76.233 225.100 C 76.318 223.323,76.475 222.924,77.537 221.800 C 78.161 221.140,79.279 220.150,80.022 219.600 C 84.850 216.028,85.011 215.246,82.249 208.800 C 80.994 205.873,80.078 202.807,79.225 198.683 C 77.515 190.419,77.584 188.934,80.123 179.600 C 80.691 177.510,81.451 173.745,81.812 171.233 C 83.376 160.335,86.363 155.208,93.813 150.635 C 97.544 148.345,99.032 147.035,101.458 143.907 C 106.162 137.841,116.391 134.897,124.732 137.208 C 126.336 137.652,130.344 138.286,133.640 138.617 C 146.057 139.862,149.815 141.128,158.928 147.134 C 167.334 152.674,171.460 152.496,175.589 146.416 C 180.757 138.806,180.615 133.685,175.275 135.086 C 168.994 136.734,164.120 133.082,162.849 125.775 C 162.370 123.018,163.260 118.201,164.435 117.200 C 164.922 116.784,167.020 112.945,167.494 111.601 C 168.499 108.750,168.088 106.918,165.675 103.508 L 164.337 101.616 162.868 102.364 C 158.900 104.385,155.535 104.807,152.904 103.613 C 151.384 102.923,151.094 102.903,150.104 103.419 C 147.638 104.706,144.478 103.981,142.671 101.714 C 141.887 100.731,141.013 100.648,137.400 101.212 M270.919 167.080 C 269.710 167.314,269.286 168.781,270.227 169.470 C 271.264 170.227,272.036 170.127,273.367 169.062 C 275.422 167.418,274.215 166.441,270.919 167.080 M238.300 170.865 C 236.896 171.378,236.915 171.602,238.564 173.899 C 242.652 179.596,239.430 183.742,231.800 182.603 C 225.844 181.714,224.242 183.327,225.165 189.290 C 226.273 196.455,226.246 196.430,231.714 195.405 C 236.935 194.427,238.479 194.860,242.655 198.475 C 244.006 199.644,246.033 201.377,247.161 202.327 C 250.270 204.946,250.932 206.545,250.997 211.600 C 251.078 217.870,251.924 219.164,258.200 222.616 C 262.309 224.875,264.778 226.851,267.162 229.790 C 269.528 232.707,271.120 234.000,272.343 234.000 C 275.901 234.000,276.654 237.598,273.336 238.744 C 269.930 239.920,269.575 240.180,268.621 242.200 C 267.899 243.726,267.618 245.180,267.433 248.336 C 266.930 256.941,264.426 259.418,255.617 260.030 C 251.261 260.333,250.486 260.517,246.137 262.278 C 237.170 265.908,232.587 265.221,227.000 259.410 C 223.876 256.160,223.717 256.057,220.299 255.028 C 212.792 252.768,209.936 246.708,212.556 238.600 C 214.144 233.685,214.098 233.487,210.477 229.753 C 205.485 224.604,204.783 222.288,205.826 214.400 C 206.766 207.289,206.255 206.400,201.233 206.400 C 198.179 206.400,196.888 207.302,194.034 211.432 C 192.805 213.209,190.102 216.597,188.026 218.960 C 182.185 225.609,180.465 228.096,176.800 235.192 C 174.278 240.076,172.949 242.191,171.653 243.388 C 167.070 247.620,166.800 247.926,166.800 248.904 C 166.800 251.610,169.306 250.697,171.844 247.066 C 175.405 241.969,180.067 242.071,188.605 247.431 C 190.886 248.863,194.518 250.751,196.676 251.627 C 198.834 252.503,201.631 253.854,202.891 254.629 C 204.152 255.404,206.936 256.852,209.079 257.847 C 217.268 261.647,219.994 264.178,221.825 269.676 C 223.885 275.859,225.491 276.584,236.520 276.299 C 242.128 276.155,244.994 275.876,249.000 275.087 C 251.860 274.523,255.966 273.778,258.125 273.431 C 267.182 271.976,275.703 267.460,281.400 261.097 C 283.160 259.131,284.787 257.315,285.015 257.061 C 285.243 256.807,285.864 255.880,286.394 255.000 C 286.924 254.120,287.479 253.310,287.626 253.200 C 288.109 252.841,289.895 249.030,290.157 247.800 C 290.678 245.359,290.772 244.655,291.208 239.878 C 291.453 237.195,291.908 233.200,292.220 231.000 C 292.531 228.800,292.789 224.988,292.793 222.529 C 292.808 213.445,293.884 209.700,297.135 207.418 L 298.870 206.200 303.535 206.365 C 313.141 206.706,313.422 206.677,317.894 204.862 C 320.146 203.948,322.256 203.200,322.584 203.200 C 324.897 203.200,332.800 197.757,332.800 196.164 C 332.800 195.889,330.775 194.138,328.300 192.274 C 325.825 190.410,322.990 188.160,322.000 187.273 C 320.685 186.096,319.715 185.590,318.400 185.396 C 317.410 185.250,316.060 184.884,315.400 184.583 C 309.977 182.106,308.252 181.918,297.200 182.597 C 287.336 183.203,287.402 183.210,283.739 181.300 C 278.104 178.362,277.034 178.704,271.945 185.066 C 264.878 193.902,254.587 190.833,252.992 179.413 C 252.472 175.692,251.492 173.200,250.547 173.200 C 250.283 173.200,250.007 173.040,249.933 172.844 C 249.416 171.464,240.713 169.983,238.300 170.865 M270.676 201.483 C 276.154 204.310,274.518 212.522,268.358 213.114 C 263.379 213.592,259.740 208.099,262.075 203.630 C 263.744 200.435,267.047 199.610,270.676 201.483 M89.600 223.720 C 89.600 224.006,89.825 224.465,90.100 224.740 C 91.106 225.746,90.637 229.927,89.078 233.850 C 88.045 236.449,87.550 238.425,87.359 240.713 L 87.091 243.927 89.360 244.965 C 92.153 246.242,94.540 246.803,95.939 246.512 C 100.512 245.559,103.584 246.417,106.977 249.595 C 109.988 252.415,112.261 253.145,114.426 251.986 C 115.244 251.548,115.473 250.216,114.802 249.801 C 114.584 249.666,113.164 247.811,111.647 245.678 C 108.577 241.361,107.388 240.465,104.308 240.146 C 99.898 239.690,98.110 238.795,95.675 235.821 C 95.270 235.327,93.409 230.600,93.620 230.600 C 93.645 230.600,93.571 230.150,93.456 229.600 C 93.340 229.050,93.139 227.930,93.007 227.112 C 92.637 224.810,89.600 221.786,89.600 223.720 M187.000 329.765 C 186.120 330.046,183.628 331.035,181.463 331.963 C 179.297 332.890,176.417 333.993,175.063 334.414 C 170.309 335.890,167.805 338.765,168.076 342.435 C 168.253 344.838,169.000 345.162,171.654 343.990 C 176.221 341.973,185.013 344.597,191.076 349.787 C 194.562 352.771,196.182 360.614,194.553 366.616 C 193.253 371.402,193.732 375.200,195.635 375.200 C 196.880 375.200,197.234 373.830,197.114 369.470 C 196.945 363.358,198.308 361.880,206.009 359.819 C 209.523 358.878,211.806 357.797,212.794 356.607 C 213.295 356.004,210.366 352.555,202.923 344.985 C 199.508 341.512,198.463 339.632,198.251 336.585 C 197.897 331.494,192.267 328.081,187.000 329.765 M219.047 373.201 C 217.747 374.640,217.374 375.200,217.715 375.200 C 217.779 375.200,218.508 374.390,219.335 373.400 C 221.200 371.169,221.005 371.034,219.047 373.201 M305.300 375.796 C 299.994 378.103,297.591 382.377,302.232 381.256 C 308.135 379.828,310.690 379.054,311.300 378.505 C 313.641 376.401,308.868 374.246,305.300 375.796 M397.635 417.400 C 397.663 420.440,397.692 420.540,398.214 419.400 C 398.935 417.826,398.932 416.745,398.202 415.346 C 397.628 414.245,397.606 414.325,397.635 417.400 " stroke="none" fill="#ddd646" fill-rule="evenodd"></path><path id="path7" d="M278.406 6.794 C 276.957 8.403,275.150 9.940,274.118 10.440 C 272.252 11.343,272.434 11.340,265.175 10.554 C 263.253 10.346,262.666 10.462,260.859 11.407 C 259.432 12.153,257.723 12.621,255.484 12.878 C 248.934 13.630,248.363 14.050,247.818 18.530 C 247.606 20.272,247.248 21.181,246.400 22.130 L 245.265 23.400 237.932 23.439 C 231.619 23.472,230.294 23.590,228.400 24.289 C 224.331 25.789,219.197 28.434,216.687 30.324 C 210.606 34.903,210.429 34.893,202.781 29.532 C 196.169 24.897,195.655 24.438,192.158 20.067 C 184.037 9.914,179.896 11.295,177.370 25.000 C 175.720 33.953,178.373 40.503,185.331 44.652 C 189.874 47.361,190.580 48.659,188.541 50.550 C 187.392 51.615,186.367 52.104,181.235 54.039 C 176.750 55.731,175.002 57.309,175.093 59.586 C 175.351 66.057,183.789 68.397,196.258 65.457 C 201.294 64.270,207.181 64.003,209.961 64.836 C 214.205 66.107,220.833 77.025,219.818 81.071 C 219.520 82.260,215.018 86.873,214.568 86.451 C 213.951 85.872,214.984 88.444,216.717 91.800 C 220.647 99.410,217.185 107.682,209.364 109.369 C 207.800 109.706,196.988 107.349,191.280 105.427 C 184.151 103.026,183.606 102.601,175.188 92.873 C 168.125 84.712,166.918 84.634,162.531 92.054 C 158.907 98.183,156.740 98.170,153.286 92.000 C 149.936 86.016,147.603 85.703,141.200 90.381 C 135.426 94.599,132.610 96.117,130.188 96.318 L 128.114 96.490 125.028 93.677 C 119.804 88.914,118.497 88.705,114.595 92.004 C 111.674 94.474,110.455 95.050,106.576 95.792 C 104.866 96.119,102.282 96.949,100.833 97.635 C 94.792 100.498,87.699 102.400,83.061 102.400 C 78.813 102.400,77.728 102.971,76.021 106.102 C 73.074 111.509,72.063 112.207,66.600 112.605 C 60.160 113.074,54.794 115.546,49.350 120.552 C 44.280 125.215,43.208 127.864,43.191 135.773 C 43.180 140.695,42.720 141.859,38.957 146.483 C 33.520 153.162,31.511 160.751,33.603 166.704 C 35.399 171.814,34.637 175.461,30.657 180.800 C 25.798 187.319,26.002 190.097,31.772 195.994 C 34.877 199.167,35.167 199.609,35.977 202.401 C 36.456 204.050,37.273 206.750,37.792 208.400 C 38.311 210.050,38.941 212.886,39.190 214.702 C 39.779 218.986,40.705 221.604,43.290 226.304 C 47.300 233.592,49.968 235.579,55.000 235.025 C 56.320 234.879,59.740 234.674,62.600 234.568 C 65.460 234.462,69.748 234.011,72.129 233.567 C 82.170 231.692,83.243 234.213,75.344 241.120 C 71.224 244.722,70.240 246.558,70.473 250.212 C 70.738 254.379,72.201 255.947,80.600 261.068 C 83.489 262.830,83.599 266.299,80.995 273.549 C 80.472 275.007,79.403 278.642,78.620 281.627 C 77.837 284.612,76.542 288.662,75.743 290.627 C 72.947 297.498,73.519 301.796,77.927 307.051 C 79.196 308.563,82.050 312.050,84.270 314.800 C 86.489 317.550,89.781 321.408,91.584 323.374 C 96.903 329.171,98.265 331.564,100.980 339.884 C 101.785 342.350,103.352 346.001,104.462 347.996 C 107.799 353.993,107.064 354.609,96.600 354.583 C 78.369 354.538,42.038 353.912,37.600 353.567 C 13.743 351.712,3.273 352.933,0.500 357.895 C -0.170 359.094,-0.237 453.210,0.432 454.459 C 0.687 454.936,0.983 459.715,1.156 466.149 C 1.317 472.135,1.596 477.270,1.776 477.561 C 2.293 478.398,2.063 482.276,1.402 483.858 C 1.071 484.650,0.800 485.805,0.800 486.425 C 0.800 487.045,0.620 487.664,0.400 487.800 C -1.285 488.841,0.473 496.153,3.020 498.700 L 4.329 500.009 70.265 499.975 C 134.873 499.941,150.899 499.730,166.200 498.708 C 170.380 498.429,179.920 498.139,187.400 498.064 C 206.138 497.874,205.630 497.869,211.000 498.299 C 218.031 498.862,387.532 498.609,392.132 498.029 C 396.429 497.488,398.014 496.865,399.146 495.276 L 400.011 494.061 399.966 435.331 C 399.940 401.468,399.764 375.499,399.549 374.000 C 399.344 372.570,399.065 370.410,398.929 369.200 C 398.518 365.555,397.109 363.932,393.094 362.479 C 384.152 359.244,384.168 359.245,340.000 359.238 C 287.100 359.229,289.048 359.581,290.344 350.251 C 290.593 348.463,290.979 343.940,291.202 340.200 C 291.426 336.460,291.987 331.420,292.450 329.000 C 294.362 319.002,293.188 314.274,286.260 304.084 C 282.016 297.842,281.415 296.702,279.464 291.191 C 276.150 281.828,276.286 281.272,283.351 275.300 C 289.004 270.522,290.420 268.676,295.397 259.600 C 301.867 247.803,302.739 246.973,311.800 243.987 C 314.000 243.262,318.680 241.456,322.200 239.974 C 329.833 236.759,331.059 236.526,335.925 237.366 C 347.500 239.363,348.478 233.515,339.055 218.639 C 335.332 212.761,335.821 211.742,343.580 209.207 C 353.095 206.097,360.426 200.734,363.077 194.944 C 365.464 189.731,362.129 188.459,350.635 190.200 C 337.864 192.133,331.352 189.533,323.808 179.488 C 319.751 174.086,317.653 172.664,310.998 170.802 C 305.692 169.318,304.202 168.367,297.600 162.250 C 295.730 160.517,293.030 158.281,291.600 157.281 C 284.246 152.138,283.200 150.966,283.200 147.871 C 283.200 146.163,283.326 145.941,285.029 144.640 C 288.896 141.687,289.914 141.404,296.800 141.372 C 308.750 141.315,315.208 139.120,321.301 133.047 C 325.904 128.459,326.654 128.165,332.349 128.713 C 338.226 129.279,338.622 128.983,341.615 121.800 C 341.798 121.360,343.129 119.687,344.573 118.083 C 348.034 114.236,348.396 113.438,348.853 108.657 C 349.336 103.610,349.981 101.363,351.971 97.800 C 356.384 89.895,356.180 90.404,356.151 87.400 C 356.137 85.860,355.856 83.610,355.528 82.400 C 354.907 80.108,355.007 78.269,356.019 73.346 C 356.470 71.155,356.430 70.425,355.650 66.546 C 354.668 61.660,354.778 60.318,356.572 55.352 C 358.494 50.028,358.001 48.256,353.579 44.597 C 349.766 41.442,349.270 40.413,348.834 34.762 C 347.948 23.256,343.871 17.930,334.635 16.213 C 330.229 15.393,328.607 14.583,325.400 11.600 C 322.375 8.786,320.967 8.042,316.000 6.634 C 313.910 6.041,311.800 5.295,311.310 4.976 C 309.064 3.509,304.149 5.621,304.016 8.109 C 304.007 8.279,303.155 8.954,302.122 9.609 C 299.087 11.534,297.670 11.287,291.200 7.711 C 289.990 7.042,287.650 6.044,286.000 5.494 C 280.748 3.741,281.225 3.660,278.406 6.794 M319.074 14.377 C 319.994 14.795,321.974 16.080,323.474 17.231 C 326.627 19.653,328.931 20.753,333.400 21.970 C 340.550 23.916,342.950 27.661,343.548 37.800 C 343.900 43.788,344.542 45.512,347.215 47.660 C 350.197 50.057,351.010 52.496,349.996 56.003 C 349.035 59.326,348.818 62.219,349.255 65.920 L 349.695 69.653 347.802 73.417 C 345.606 77.782,345.613 77.987,348.104 82.200 C 350.535 86.311,350.588 88.310,348.388 92.800 C 345.386 98.926,344.367 101.950,343.767 106.519 C 343.077 111.767,343.191 111.545,338.450 116.929 C 333.821 122.187,333.456 122.397,328.920 122.409 C 324.171 122.421,322.957 123.028,319.021 127.364 C 313.604 133.331,310.164 134.481,297.400 134.592 C 291.250 134.646,289.516 134.786,288.313 135.329 C 285.210 136.729,283.672 136.227,281.259 133.031 C 277.669 128.277,271.442 124.907,264.536 123.982 C 259.103 123.254,258.223 122.706,255.242 118.200 C 253.614 115.740,251.582 114.125,249.432 113.582 C 245.660 112.630,244.009 111.498,240.958 107.775 L 239.430 105.910 236.015 106.075 C 227.863 106.467,224.022 111.096,224.523 119.927 C 224.840 125.500,224.448 126.392,219.855 130.561 C 213.739 136.114,208.398 145.074,208.490 149.626 C 208.518 151.042,208.405 153.592,208.237 155.293 C 207.375 164.056,213.146 164.334,218.928 155.809 C 221.144 152.541,223.493 150.077,228.000 146.294 C 230.090 144.540,233.611 141.347,235.824 139.199 C 241.490 133.701,242.172 133.389,248.400 133.446 C 258.542 133.540,265.539 136.993,269.381 143.800 C 273.225 150.611,277.993 155.618,285.066 160.269 C 287.540 161.896,291.848 165.311,294.638 167.858 C 301.172 173.822,303.461 175.279,309.027 177.017 C 314.365 178.683,316.069 179.829,318.963 183.701 C 321.328 186.866,322.760 188.162,329.281 193.041 C 333.121 195.915,333.994 196.383,336.981 197.172 C 344.886 199.260,343.720 202.234,334.226 204.203 C 326.382 205.830,324.000 207.506,324.000 211.399 C 324.000 213.518,324.279 213.852,331.148 219.940 C 338.338 226.314,337.954 229.757,329.983 230.356 C 326.576 230.612,324.784 230.957,323.000 231.702 C 320.267 232.843,315.386 234.527,312.958 235.167 C 312.054 235.405,310.477 236.240,309.452 237.023 C 307.204 238.739,305.625 239.431,303.091 239.809 C 300.224 240.237,297.806 243.142,293.183 251.716 C 286.153 264.753,284.526 267.054,279.694 270.796 C 269.964 278.332,268.941 280.786,272.105 289.000 C 273.507 292.640,274.526 295.971,274.934 298.242 C 275.088 299.099,276.189 300.527,278.489 302.853 C 287.090 311.551,289.169 317.302,287.666 328.236 C 287.185 331.736,286.609 337.750,286.386 341.600 C 286.163 345.450,285.721 349.770,285.404 351.200 C 284.611 354.782,284.662 356.961,285.582 358.766 C 288.215 363.926,293.083 364.477,332.800 364.112 C 379.282 363.685,378.767 363.664,384.884 366.197 C 386.268 366.770,388.651 367.702,390.181 368.267 C 393.896 369.641,395.741 370.919,396.292 372.500 C 397.250 375.250,397.734 384.764,397.771 401.600 C 397.795 412.672,397.902 415.154,398.387 415.885 C 398.883 416.633,398.894 417.034,398.458 418.485 C 398.074 419.764,397.925 425.034,397.872 439.200 L 397.800 458.200 396.300 460.608 C 394.228 463.934,394.190 466.838,396.159 471.430 C 398.351 476.542,398.624 489.497,396.607 492.693 C 395.894 493.822,389.146 494.089,357.400 494.240 C 334.946 494.348,323.212 494.553,320.200 494.893 C 312.599 495.748,248.883 495.586,244.000 494.699 C 241.910 494.319,238.130 493.905,235.600 493.779 C 233.070 493.654,228.840 493.275,226.200 492.937 C 223.560 492.600,218.970 492.173,216.000 491.988 C 213.030 491.804,209.610 491.374,208.400 491.032 C 203.793 489.731,200.586 489.763,196.545 491.150 C 192.293 492.610,191.106 492.661,186.000 491.600 C 178.391 490.019,174.078 490.737,161.200 495.726 C 158.869 496.630,158.043 496.641,109.000 496.461 C 105.480 496.448,96.210 496.454,88.400 496.474 C 80.590 496.494,72.310 496.441,70.000 496.356 C 67.451 496.262,63.485 496.481,59.911 496.914 C 48.740 498.266,26.134 497.766,23.451 496.108 C 23.255 495.987,19.764 495.841,15.693 495.785 L 8.292 495.682 6.747 493.941 C 4.228 491.104,4.967 489.261,8.871 488.646 C 13.309 487.946,20.003 485.539,21.401 484.142 C 22.550 482.993,21.620 478.704,19.916 477.294 C 19.580 477.016,17.343 476.547,14.944 476.252 C 10.032 475.648,8.605 475.063,6.852 472.937 L 5.632 471.457 5.699 463.028 L 5.766 454.600 4.283 451.350 L 2.800 448.099 2.747 408.750 C 2.718 387.107,2.824 368.396,2.984 367.168 C 3.151 365.886,3.100 364.303,2.865 363.450 C 1.109 357.091,10.193 355.242,32.800 357.354 C 43.245 358.330,54.090 358.526,65.800 357.949 C 71.740 357.657,79.570 357.504,83.200 357.609 C 116.010 358.560,119.701 357.247,110.788 347.798 C 107.983 344.825,107.530 343.956,106.073 338.757 C 103.696 330.269,100.629 325.708,87.010 310.400 C 77.579 299.799,77.314 298.879,81.327 290.649 C 84.125 284.911,85.264 281.964,86.214 278.000 C 86.610 276.350,87.823 272.307,88.909 269.014 C 91.824 260.184,91.469 258.249,86.328 254.954 C 82.486 252.491,82.356 251.136,85.534 246.680 C 86.735 244.996,86.952 244.306,87.291 241.080 C 87.562 238.504,88.104 236.320,89.097 233.800 C 93.248 223.264,89.936 220.705,77.967 225.200 C 70.173 228.127,68.123 228.331,66.454 226.347 C 62.363 221.482,61.593 221.223,55.903 222.800 C 48.741 224.785,45.731 222.362,44.157 213.346 C 43.826 211.451,43.130 208.528,42.610 206.851 C 42.090 205.173,41.381 202.388,41.034 200.663 C 40.175 196.396,39.473 195.091,36.854 192.887 C 31.695 188.544,31.607 187.023,36.191 181.400 C 37.447 179.860,39.117 177.283,39.904 175.674 C 41.588 172.227,43.492 170.435,46.479 169.484 C 54.162 167.039,54.176 163.131,46.520 158.153 C 41.578 154.941,41.347 153.756,44.679 148.725 C 47.377 144.653,47.884 143.385,48.604 138.914 C 49.539 133.100,50.379 131.600,55.102 127.309 C 60.506 122.399,61.345 121.994,67.746 121.204 C 73.961 120.437,78.651 117.814,81.475 113.528 C 83.449 110.532,84.424 109.807,88.872 108.026 C 92.883 106.420,95.044 106.421,99.226 108.034 C 104.742 110.161,106.384 109.822,110.739 105.660 C 115.935 100.693,119.767 99.994,123.946 103.251 C 126.122 104.946,127.360 104.911,131.957 103.027 C 134.993 101.781,137.053 101.205,139.200 100.999 C 140.850 100.841,142.807 100.462,143.549 100.156 C 146.081 99.112,149.031 99.789,150.022 101.642 C 152.092 105.509,160.513 104.826,165.408 100.393 C 169.508 96.680,170.718 97.067,176.570 103.964 C 180.955 109.133,183.111 110.634,186.600 110.948 C 191.686 111.405,198.615 113.395,202.987 115.654 C 209.336 118.934,211.582 118.484,216.876 112.873 C 220.900 108.607,222.703 103.874,223.576 95.286 C 224.017 90.943,224.471 89.710,226.697 86.800 C 228.768 84.093,228.310 81.143,224.440 72.253 C 222.167 67.032,221.899 64.902,223.000 60.800 C 223.791 57.854,223.777 57.770,222.424 57.210 C 220.546 56.432,217.570 56.665,212.714 57.969 C 204.128 60.276,188.072 61.835,186.447 60.519 C 185.120 59.444,185.760 58.573,189.491 56.373 C 199.104 50.706,199.931 45.977,191.764 43.377 C 183.371 40.704,180.067 36.429,180.501 28.800 C 181.023 19.615,185.035 17.891,191.200 24.201 C 192.630 25.665,195.600 28.269,197.800 29.988 C 200.000 31.707,202.858 34.212,204.151 35.555 C 207.584 39.121,209.162 39.415,214.875 37.548 C 219.152 36.151,223.263 34.063,226.268 31.761 C 231.966 27.397,236.769 26.987,244.029 30.245 C 248.675 32.330,255.723 30.089,258.591 25.614 C 260.803 22.163,263.537 20.901,273.400 18.776 C 276.320 18.147,278.421 17.377,281.182 15.924 C 285.236 13.791,286.916 13.612,289.643 15.022 C 294.476 17.522,303.166 17.660,308.200 15.317 C 312.471 13.329,316.078 13.017,319.074 14.377 M235.964 114.562 C 237.059 115.727,237.971 118.224,237.692 119.290 C 237.133 121.428,232.920 120.966,231.714 118.634 C 229.843 115.017,233.290 111.715,235.964 114.562 M229.953 132.362 C 231.923 133.610,227.071 139.836,222.457 141.981 C 217.015 144.510,217.982 138.093,223.633 134.177 C 226.170 132.419,228.834 131.654,229.953 132.362 M231.062 310.253 C 219.915 312.644,217.048 317.407,220.397 327.973 C 223.092 336.475,225.383 338.812,231.000 338.789 C 237.671 338.762,240.237 333.827,240.122 321.245 L 240.044 312.690 238.945 311.543 C 237.100 309.617,235.357 309.331,231.062 310.253 M232.285 318.070 C 237.082 322.052,235.284 332.960,230.021 331.805 C 226.573 331.047,224.165 323.486,226.157 319.670 C 227.299 317.483,230.554 316.634,232.285 318.070 M200.410 333.307 C 196.554 334.675,197.611 339.585,202.923 344.981 C 204.505 346.589,207.387 349.635,209.328 351.752 C 213.481 356.283,214.732 356.689,217.376 354.367 C 221.298 350.924,219.883 339.556,215.163 336.576 C 211.888 334.509,202.738 332.481,200.410 333.307 M225.634 369.230 C 223.396 369.675,221.288 371.067,219.334 373.391 C 215.761 377.641,215.459 380.232,217.992 384.879 C 218.868 386.486,220.670 390.007,221.996 392.705 C 224.468 397.733,225.844 399.480,230.200 403.118 C 233.171 405.599,231.454 407.105,225.600 407.154 C 220.242 407.198,205.027 402.629,191.457 396.901 C 184.476 393.954,182.679 392.919,174.336 387.033 C 169.608 383.697,165.179 383.261,158.519 385.473 C 153.210 387.237,152.938 392.990,157.647 403.937 C 160.271 410.038,161.377 413.942,162.821 422.200 C 164.693 432.901,167.477 437.075,176.946 443.375 C 191.699 453.192,219.548 456.729,237.000 451.004 C 250.008 446.737,257.066 442.965,262.227 437.522 C 269.078 430.298,271.008 425.346,270.733 415.688 C 270.460 406.065,266.395 403.748,258.848 408.911 C 256.082 410.804,250.943 410.558,242.400 408.124 C 236.550 406.457,235.979 405.762,237.614 402.305 C 238.645 400.126,238.799 399.347,238.800 396.314 C 238.800 394.396,239.087 390.796,239.438 388.314 C 241.279 375.286,235.483 367.273,225.634 369.230 M231.342 375.602 C 235.560 379.306,233.927 392.282,229.458 390.567 C 228.637 390.252,224.840 385.231,223.633 382.864 C 220.720 377.155,226.698 371.525,231.342 375.602 M169.833 389.559 C 170.731 389.967,173.108 391.548,175.116 393.072 C 180.668 397.288,191.945 402.892,201.800 406.333 C 206.200 407.869,211.420 409.759,213.400 410.533 C 219.382 412.870,224.261 413.698,233.011 413.860 C 241.258 414.013,240.757 413.919,250.800 417.218 C 260.901 420.537,262.215 422.313,259.793 429.379 C 256.924 437.749,252.414 440.061,235.600 441.782 C 231.049 442.248,230.179 442.447,226.635 443.833 C 221.530 445.828,221.238 445.927,219.000 446.434 C 216.619 446.973,205.918 446.960,202.800 446.414 C 183.420 443.023,172.671 436.685,168.735 426.326 C 168.302 425.187,167.516 422.173,166.987 419.628 C 165.413 412.058,164.522 408.993,162.634 404.658 C 159.949 398.491,159.334 395.973,159.950 393.668 C 161.086 389.420,165.493 387.588,169.833 389.559 M102.638 456.588 C 97.894 459.154,100.884 465.600,106.818 465.600 C 114.306 465.600,113.127 457.126,105.507 456.173 C 104.363 456.030,103.417 456.167,102.638 456.588 M351.600 462.515 C 348.625 464.013,351.174 468.867,354.349 467.750 C 357.090 466.786,355.542 461.581,352.640 462.006 C 352.618 462.009,352.150 462.238,351.600 462.515 M204.096 464.398 C 197.110 468.658,203.021 481.904,212.779 483.856 C 218.435 484.987,222.213 475.250,218.830 468.261 C 217.125 464.741,207.622 462.249,204.096 464.398 " stroke="none" fill="#a3b68e" fill-rule="evenodd"></path></g></svg>